<svg xmlns="http://www.w3.org/2000/svg" width="22" height="22" viewBox="0 0 22 22" fill="none">
<g clip-path="url(#clip0)" filter="url(#filter0_d)">
<path d="M14.6667 21.9996C11.5555 21.9996 8.77712 20.0316 7.75321 17.1001C7.47454 16.3237 7.33337 15.5032 7.33337 14.6663C7.33337 14.1594 7.38287 13.6653 7.48096 13.1969C7.80637 11.6065 8.66162 10.1573 9.88812 9.11867C11.21 7.96826 12.9085 7.33301 14.6667 7.33301C14.8372 7.33301 14.9967 7.34217 15.1663 7.36234C18.9998 7.60434 22 10.8099 22 14.6663C22 18.7097 18.7101 21.9996 14.6667 21.9996ZM14.6667 8.24967C13.1295 8.24967 11.6445 8.80517 10.4849 9.81442C9.40962 10.7247 8.66346 11.9906 8.37837 13.3839C8.29312 13.7918 8.25004 14.2227 8.25004 14.6663C8.25004 15.3978 8.37379 16.1137 8.61671 16.7939C9.51412 19.3606 11.9442 21.083 14.6667 21.083C18.2041 21.083 21.0834 18.2037 21.0834 14.6663C21.0834 11.2893 18.4544 8.48251 15.0975 8.27626C15.0884 8.27626 15.0801 8.27534 15.0719 8.27442C14.9335 8.25792 14.8042 8.24967 14.6667 8.24967Z" fill="#CF68FF"/>
<path d="M7.79167 6.41667C4.015 6.41667 0 5.29192 0 3.20833C0 1.12475 4.015 0 7.79167 0C11.5683 0 15.5833 1.12475 15.5833 3.20833C15.5833 5.29192 11.5683 6.41667 7.79167 6.41667ZM7.79167 0.916667C3.85642 0.916667 0.916667 2.12667 0.916667 3.20833C0.916667 4.29 3.85642 5.5 7.79167 5.5C11.7269 5.5 14.6667 4.29 14.6667 3.20833C14.6667 2.12667 11.7269 0.916667 7.79167 0.916667Z" fill="#CF68FF"/>
<path d="M7.79167 10.0837C4.015 10.0837 0 8.9589 0 6.87532C0 6.62233 0.205333 6.41699 0.458333 6.41699C0.711333 6.41699 0.916667 6.62233 0.916667 6.87532C0.916667 7.95699 3.85642 9.16699 7.79167 9.16699C8.58733 9.16699 9.372 9.11565 10.1237 9.01482C10.3684 8.98182 10.6049 9.1569 10.6388 9.40807C10.6728 9.65924 10.4967 9.88932 10.2456 9.92323C9.45267 10.0296 8.62767 10.0837 7.79167 10.0837Z" fill="#CF68FF"/>
<path d="M7.92917 13.7497H7.79167C4.015 13.7497 0 12.6249 0 10.5413C0 10.2883 0.205333 10.083 0.458333 10.083C0.711333 10.083 0.916667 10.2883 0.916667 10.5413C0.916667 11.623 3.85642 12.833 7.79167 12.833H7.92917C8.18217 12.833 8.3875 13.0383 8.3875 13.2913C8.3875 13.5443 8.18308 13.7497 7.92917 13.7497Z" fill="#CF68FF"/>
<path d="M7.79167 17.4167C4.015 17.4167 0 16.2919 0 14.2083C0 13.9553 0.205333 13.75 0.458333 13.75C0.711333 13.75 0.916667 13.9553 0.916667 14.2083C0.916667 15.29 3.85642 16.5 7.79167 16.5C7.90442 16.5018 8.0355 16.5009 8.15375 16.4917C8.40308 16.4652 8.62583 16.6641 8.64325 16.9171C8.66067 17.1692 8.47092 17.3892 8.21792 17.4066C8.07858 17.4167 7.93008 17.4167 7.79167 17.4167Z" fill="#CF68FF"/>
<path d="M0.458333 14.6667C0.205333 14.6667 0 14.4613 0 14.2083V3.20833C0 2.95533 0.205333 2.75 0.458333 2.75C0.711333 2.75 0.916667 2.95533 0.916667 3.20833V14.2083C0.916667 14.4613 0.711333 14.6667 0.458333 14.6667Z" fill="#CF68FF"/>
<path d="M15.125 8.2775C14.872 8.2775 14.6666 8.07217 14.6666 7.81917V3.20833C14.6666 2.95533 14.872 2.75 15.125 2.75C15.378 2.75 15.5833 2.95533 15.5833 3.20833V7.81917C15.5833 8.07217 15.378 8.2775 15.125 8.2775Z" fill="#CF68FF"/>
</g>
<defs>
<clipPath id="clip0">
<rect width="22" height="22" fill="white"/>
</clipPath>
<filter id="filter0_d" x="0.0429688" y="0.957031" width="25.9978" height="26" filterUnits="userSpaceOnUse" color-interpolation-filters="sRGB">
<feFlood flood-opacity="0" result="BackgroundImageFix"/>
<feColorMatrix in="SourceAlpha" type="matrix" values="0 0 0 0 0 0 0 0 0 0 0 0 0 0 0 0 0 0 127 0" result="hardAlpha"/>
<feOffset/>
<feGaussianBlur stdDeviation="1"/>
<feColorMatrix type="matrix" values="0 0 0 0 0.691667 0 0 0 0 0.295833 0 0 0 0 1 0 0 0 1 0"/>
<feBlend mode="normal" in2="BackgroundImageFix" result="effect1_dropShadow"/>
<feBlend mode="normal" in="SourceGraphic" in2="effect1_dropShadow" result="shape"/>
</filter>
</defs>
</svg>
