<svg xmlns="http://www.w3.org/2000/svg" width="22" height="22" viewBox="0 0 22 22" fill="none">
<mask id="path-1-outside-1" maskUnits="userSpaceOnUse" x="13.1647" y="3.55273" width="5" height="7" fill="black">
<rect fill="white" x="13.1647" y="3.55273" width="5" height="7"/>
<path d="M15.7959 10.4226C15.7205 10.4228 15.6478 10.3943 15.5926 10.3429C15.5374 10.2915 15.5038 10.2211 15.4986 10.1458C15.3482 8.80792 14.9067 7.51918 14.2051 6.37014C14.1654 6.30197 14.1544 6.22083 14.1745 6.14456C14.1946 6.06829 14.2442 6.00313 14.3124 5.96343C14.3806 5.92373 14.4617 5.91274 14.538 5.93287C14.6143 5.95299 14.6794 6.0026 14.7191 6.07076C15.3411 7.11475 15.7782 8.25831 16.0112 9.45103C16.6355 8.51365 16.829 6.75484 16.0903 4.96362C16.0602 4.89069 16.0603 4.80879 16.0906 4.73595C16.1209 4.66311 16.1789 4.60529 16.2518 4.57521C16.3248 4.54512 16.4067 4.54525 16.4795 4.57555C16.5523 4.60585 16.6102 4.66385 16.6402 4.73679C17.5348 6.90706 17.2444 9.37641 15.9782 10.3599C15.9261 10.4004 15.862 10.4225 15.7959 10.4226Z"/>
</mask>
<path d="M15.7959 10.4226C15.7205 10.4228 15.6478 10.3943 15.5926 10.3429C15.5374 10.2915 15.5038 10.2211 15.4986 10.1458C15.3482 8.80792 14.9067 7.51918 14.2051 6.37014C14.1654 6.30197 14.1544 6.22083 14.1745 6.14456C14.1946 6.06829 14.2442 6.00313 14.3124 5.96343C14.3806 5.92373 14.4617 5.91274 14.538 5.93287C14.6143 5.95299 14.6794 6.0026 14.7191 6.07076C15.3411 7.11475 15.7782 8.25831 16.0112 9.45103C16.6355 8.51365 16.829 6.75484 16.0903 4.96362C16.0602 4.89069 16.0603 4.80879 16.0906 4.73595C16.1209 4.66311 16.1789 4.60529 16.2518 4.57521C16.3248 4.54512 16.4067 4.54525 16.4795 4.57555C16.5523 4.60585 16.6102 4.66385 16.6402 4.73679C17.5348 6.90706 17.2444 9.37641 15.9782 10.3599C15.9261 10.4004 15.862 10.4225 15.7959 10.4226Z" fill="white"/>
<path d="M15.7959 10.4226C15.7205 10.4228 15.6478 10.3943 15.5926 10.3429C15.5374 10.2915 15.5038 10.2211 15.4986 10.1458C15.3482 8.80792 14.9067 7.51918 14.2051 6.37014C14.1654 6.30197 14.1544 6.22083 14.1745 6.14456C14.1946 6.06829 14.2442 6.00313 14.3124 5.96343C14.3806 5.92373 14.4617 5.91274 14.538 5.93287C14.6143 5.95299 14.6794 6.0026 14.7191 6.07076C15.3411 7.11475 15.7782 8.25831 16.0112 9.45103C16.6355 8.51365 16.829 6.75484 16.0903 4.96362C16.0602 4.89069 16.0603 4.80879 16.0906 4.73595C16.1209 4.66311 16.1789 4.60529 16.2518 4.57521C16.3248 4.54512 16.4067 4.54525 16.4795 4.57555C16.5523 4.60585 16.6102 4.66385 16.6402 4.73679C17.5348 6.90706 17.2444 9.37641 15.9782 10.3599C15.9261 10.4004 15.862 10.4225 15.7959 10.4226Z" stroke="white" stroke-width="0.2" mask="url(#path-1-outside-1)"/>
<mask id="path-2-outside-2" maskUnits="userSpaceOnUse" x="7.75562" y="-0.408203" width="8" height="5" fill="black">
<rect fill="white" x="7.75562" y="-0.408203" width="8" height="5"/>
<path d="M12.6143 4.08246C12.5746 4.08258 12.5353 4.07474 12.4987 4.05943C12.4621 4.04411 12.4289 4.02162 12.4012 3.99328C11.4436 2.965 10.2664 2.16604 8.95727 1.65592C8.90627 1.6386 8.86094 1.60774 8.82611 1.56665C8.79129 1.52555 8.76828 1.47577 8.75955 1.42262C8.75082 1.36947 8.75669 1.31495 8.77654 1.26487C8.79639 1.2148 8.82947 1.17106 8.87224 1.13833C10.1833 0.135545 12.7743 0.551761 14.6472 2.06679C14.6787 2.09097 14.705 2.12119 14.7246 2.15569C14.7441 2.19019 14.7566 2.22826 14.7613 2.26765C14.7659 2.30705 14.7626 2.34698 14.7516 2.38509C14.7406 2.42319 14.7221 2.45871 14.6971 2.48954C14.6721 2.52038 14.6413 2.5459 14.6063 2.56462C14.5713 2.58333 14.5329 2.59486 14.4934 2.59851C14.4539 2.60217 14.4141 2.59789 14.3763 2.58591C14.3385 2.57394 14.3034 2.55451 14.2732 2.52879C12.7359 1.28579 10.8811 0.957869 9.76027 1.33782C10.9082 1.89525 11.947 2.65396 12.8272 3.57795C12.8682 3.61979 12.8959 3.67283 12.9069 3.73038C12.9179 3.78794 12.9116 3.84746 12.8889 3.90146C12.8661 3.95546 12.8279 4.00153 12.7791 4.03389C12.7302 4.06626 12.6729 4.08346 12.6143 4.08336V4.08246Z"/>
</mask>
<path d="M12.6143 4.08246C12.5746 4.08258 12.5353 4.07474 12.4987 4.05943C12.4621 4.04411 12.4289 4.02162 12.4012 3.99328C11.4436 2.965 10.2664 2.16604 8.95727 1.65592C8.90627 1.6386 8.86094 1.60774 8.82611 1.56665C8.79129 1.52555 8.76828 1.47577 8.75955 1.42262C8.75082 1.36947 8.75669 1.31495 8.77654 1.26487C8.79639 1.2148 8.82947 1.17106 8.87224 1.13833C10.1833 0.135545 12.7743 0.551761 14.6472 2.06679C14.6787 2.09097 14.705 2.12119 14.7246 2.15569C14.7441 2.19019 14.7566 2.22826 14.7613 2.26765C14.7659 2.30705 14.7626 2.34698 14.7516 2.38509C14.7406 2.42319 14.7221 2.45871 14.6971 2.48954C14.6721 2.52038 14.6413 2.5459 14.6063 2.56462C14.5713 2.58333 14.5329 2.59486 14.4934 2.59851C14.4539 2.60217 14.4141 2.59789 14.3763 2.58591C14.3385 2.57394 14.3034 2.55451 14.2732 2.52879C12.7359 1.28579 10.8811 0.957869 9.76027 1.33782C10.9082 1.89525 11.947 2.65396 12.8272 3.57795C12.8682 3.61979 12.8959 3.67283 12.9069 3.73038C12.9179 3.78794 12.9116 3.84746 12.8889 3.90146C12.8661 3.95546 12.8279 4.00153 12.7791 4.03389C12.7302 4.06626 12.6729 4.08346 12.6143 4.08336V4.08246Z" fill="white"/>
<path d="M12.6143 4.08246C12.5746 4.08258 12.5353 4.07474 12.4987 4.05943C12.4621 4.04411 12.4289 4.02162 12.4012 3.99328C11.4436 2.965 10.2664 2.16604 8.95727 1.65592C8.90627 1.6386 8.86094 1.60774 8.82611 1.56665C8.79129 1.52555 8.76828 1.47577 8.75955 1.42262C8.75082 1.36947 8.75669 1.31495 8.77654 1.26487C8.79639 1.2148 8.82947 1.17106 8.87224 1.13833C10.1833 0.135545 12.7743 0.551761 14.6472 2.06679C14.6787 2.09097 14.705 2.12119 14.7246 2.15569C14.7441 2.19019 14.7566 2.22826 14.7613 2.26765C14.7659 2.30705 14.7626 2.34698 14.7516 2.38509C14.7406 2.42319 14.7221 2.45871 14.6971 2.48954C14.6721 2.52038 14.6413 2.5459 14.6063 2.56462C14.5713 2.58333 14.5329 2.59486 14.4934 2.59851C14.4539 2.60217 14.4141 2.59789 14.3763 2.58591C14.3385 2.57394 14.3034 2.55451 14.2732 2.52879C12.7359 1.28579 10.8811 0.957869 9.76027 1.33782C10.9082 1.89525 11.947 2.65396 12.8272 3.57795C12.8682 3.61979 12.8959 3.67283 12.9069 3.73038C12.9179 3.78794 12.9116 3.84746 12.8889 3.90146C12.8661 3.95546 12.8279 4.00153 12.7791 4.03389C12.7302 4.06626 12.6729 4.08346 12.6143 4.08336V4.08246Z" stroke="white" stroke-width="0.2" mask="url(#path-2-outside-2)"/>
<mask id="path-3-outside-3" maskUnits="userSpaceOnUse" x="11.2621" y="0.946289" width="6" height="6" fill="black">
<rect fill="white" x="11.2621" y="0.946289" width="6" height="6"/>
<path d="M14.3854 6.52357C14.2462 6.52388 14.1089 6.49219 13.984 6.43095C13.8591 6.36971 13.75 6.28055 13.665 6.17038L12.4502 4.5947C12.3036 4.40377 12.2387 4.16247 12.2697 3.92373C12.3006 3.68498 12.425 3.46826 12.6155 3.32108L14.1552 2.13456C14.3462 1.98789 14.5874 1.9229 14.8262 1.95383C15.0649 1.98476 15.2816 2.10909 15.4289 2.29957L16.6433 3.87524C16.7166 3.96951 16.7704 4.07734 16.8018 4.19252C16.8332 4.3077 16.8415 4.42796 16.8262 4.54635C16.8109 4.66474 16.7723 4.77893 16.7126 4.88234C16.653 4.98575 16.5734 5.07633 16.4786 5.14887L14.9386 6.33538C14.7802 6.45769 14.5855 6.52389 14.3854 6.52357ZM14.7094 2.53978C14.6403 2.53964 14.573 2.56244 14.5182 2.60459L12.9782 3.79111C12.9124 3.84197 12.8695 3.91684 12.8588 3.99931C12.8481 4.08179 12.8705 4.16514 12.9212 4.23111L14.1359 5.80679C14.1608 5.83972 14.192 5.86737 14.2277 5.88811C14.2634 5.90885 14.3029 5.92227 14.3438 5.92758C14.3847 5.9329 14.4263 5.93 14.4661 5.91906C14.5059 5.90812 14.5432 5.88936 14.5756 5.86387L16.1156 4.67735C16.1485 4.65239 16.176 4.62116 16.1967 4.58545C16.2174 4.54975 16.2307 4.51029 16.236 4.46938C16.2413 4.42847 16.2384 4.38691 16.2275 4.34713C16.2166 4.30735 16.1978 4.27013 16.1724 4.23765L14.958 2.66197C14.9287 2.62392 14.891 2.59311 14.8479 2.57193C14.8048 2.55074 14.7574 2.53974 14.7094 2.53978Z"/>
</mask>
<path d="M14.3854 6.52357C14.2462 6.52388 14.1089 6.49219 13.984 6.43095C13.8591 6.36971 13.75 6.28055 13.665 6.17038L12.4502 4.5947C12.3036 4.40377 12.2387 4.16247 12.2697 3.92373C12.3006 3.68498 12.425 3.46826 12.6155 3.32108L14.1552 2.13456C14.3462 1.98789 14.5874 1.9229 14.8262 1.95383C15.0649 1.98476 15.2816 2.10909 15.4289 2.29957L16.6433 3.87524C16.7166 3.96951 16.7704 4.07734 16.8018 4.19252C16.8332 4.3077 16.8415 4.42796 16.8262 4.54635C16.8109 4.66474 16.7723 4.77893 16.7126 4.88234C16.653 4.98575 16.5734 5.07633 16.4786 5.14887L14.9386 6.33538C14.7802 6.45769 14.5855 6.52389 14.3854 6.52357ZM14.7094 2.53978C14.6403 2.53964 14.573 2.56244 14.5182 2.60459L12.9782 3.79111C12.9124 3.84197 12.8695 3.91684 12.8588 3.99931C12.8481 4.08179 12.8705 4.16514 12.9212 4.23111L14.1359 5.80679C14.1608 5.83972 14.192 5.86737 14.2277 5.88811C14.2634 5.90885 14.3029 5.92227 14.3438 5.92758C14.3847 5.9329 14.4263 5.93 14.4661 5.91906C14.5059 5.90812 14.5432 5.88936 14.5756 5.86387L16.1156 4.67735C16.1485 4.65239 16.176 4.62116 16.1967 4.58545C16.2174 4.54975 16.2307 4.51029 16.236 4.46938C16.2413 4.42847 16.2384 4.38691 16.2275 4.34713C16.2166 4.30735 16.1978 4.27013 16.1724 4.23765L14.958 2.66197C14.9287 2.62392 14.891 2.59311 14.8479 2.57193C14.8048 2.55074 14.7574 2.53974 14.7094 2.53978Z" fill="white"/>
<path d="M14.3854 6.52357C14.2462 6.52388 14.1089 6.49219 13.984 6.43095C13.8591 6.36971 13.75 6.28055 13.665 6.17038L12.4502 4.5947C12.3036 4.40377 12.2387 4.16247 12.2697 3.92373C12.3006 3.68498 12.425 3.46826 12.6155 3.32108L14.1552 2.13456C14.3462 1.98789 14.5874 1.9229 14.8262 1.95383C15.0649 1.98476 15.2816 2.10909 15.4289 2.29957L16.6433 3.87524C16.7166 3.96951 16.7704 4.07734 16.8018 4.19252C16.8332 4.3077 16.8415 4.42796 16.8262 4.54635C16.8109 4.66474 16.7723 4.77893 16.7126 4.88234C16.653 4.98575 16.5734 5.07633 16.4786 5.14887L14.9386 6.33538C14.7802 6.45769 14.5855 6.52389 14.3854 6.52357ZM14.7094 2.53978C14.6403 2.53964 14.573 2.56244 14.5182 2.60459L12.9782 3.79111C12.9124 3.84197 12.8695 3.91684 12.8588 3.99931C12.8481 4.08179 12.8705 4.16514 12.9212 4.23111L14.1359 5.80679C14.1608 5.83972 14.192 5.86737 14.2277 5.88811C14.2634 5.90885 14.3029 5.92227 14.3438 5.92758C14.3847 5.9329 14.4263 5.93 14.4661 5.91906C14.5059 5.90812 14.5432 5.88936 14.5756 5.86387L16.1156 4.67735C16.1485 4.65239 16.176 4.62116 16.1967 4.58545C16.2174 4.54975 16.2307 4.51029 16.236 4.46938C16.2413 4.42847 16.2384 4.38691 16.2275 4.34713C16.2166 4.30735 16.1978 4.27013 16.1724 4.23765L14.958 2.66197C14.9287 2.62392 14.891 2.59311 14.8479 2.57193C14.8048 2.55074 14.7574 2.53974 14.7094 2.53978Z" stroke="white" stroke-width="0.2" mask="url(#path-3-outside-3)"/>
<mask id="path-4-outside-4" maskUnits="userSpaceOnUse" x="0.0134277" y="3.15137" width="15" height="12" fill="black">
<rect fill="white" x="0.0134277" y="3.15137" width="15" height="12"/>
<path d="M2.36857 14.994C2.25114 14.9943 2.1352 14.9677 2.02969 14.9161C1.92418 14.8646 1.83191 14.7895 1.76 14.6967L1.17343 13.9341C1.11178 13.8544 1.06647 13.7632 1.0401 13.666C1.01373 13.5687 1.00683 13.4671 1.01978 13.3672C1.03273 13.2672 1.06529 13.1708 1.11558 13.0835C1.16588 12.9961 1.23292 12.9196 1.31287 12.8582L12.5326 4.21307C12.5954 4.16537 12.6743 4.14404 12.7526 4.15361C12.8307 4.16383 12.9016 4.20468 12.9497 4.26717L14.1091 5.77239C14.157 5.83481 14.1782 5.91366 14.1681 5.99168C14.1579 6.06969 14.1173 6.14051 14.055 6.18861L2.83562 14.8349C2.70189 14.9383 2.53759 14.9942 2.36857 14.994ZM1.67587 13.3291C1.65773 13.3428 1.6425 13.3599 1.63107 13.3796C1.61965 13.3992 1.61225 13.4209 1.60931 13.4435C1.60638 13.466 1.60797 13.4889 1.61398 13.5108C1.62 13.5327 1.63032 13.5532 1.64435 13.5711L2.22973 14.3325C2.24364 14.3503 2.26094 14.3652 2.28061 14.3764C2.30029 14.3875 2.32198 14.3947 2.34442 14.3974C2.36687 14.4002 2.38964 14.3985 2.41143 14.3924C2.43323 14.3864 2.45361 14.3761 2.47143 14.3622L13.4572 5.89993L12.6601 4.86534L1.67587 13.3291Z"/>
</mask>
<path d="M2.36857 14.994C2.25114 14.9943 2.1352 14.9677 2.02969 14.9161C1.92418 14.8646 1.83191 14.7895 1.76 14.6967L1.17343 13.9341C1.11178 13.8544 1.06647 13.7632 1.0401 13.666C1.01373 13.5687 1.00683 13.4671 1.01978 13.3672C1.03273 13.2672 1.06529 13.1708 1.11558 13.0835C1.16588 12.9961 1.23292 12.9196 1.31287 12.8582L12.5326 4.21307C12.5954 4.16537 12.6743 4.14404 12.7526 4.15361C12.8307 4.16383 12.9016 4.20468 12.9497 4.26717L14.1091 5.77239C14.157 5.83481 14.1782 5.91366 14.1681 5.99168C14.1579 6.06969 14.1173 6.14051 14.055 6.18861L2.83562 14.8349C2.70189 14.9383 2.53759 14.9942 2.36857 14.994ZM1.67587 13.3291C1.65773 13.3428 1.6425 13.3599 1.63107 13.3796C1.61965 13.3992 1.61225 13.4209 1.60931 13.4435C1.60638 13.466 1.60797 13.4889 1.61398 13.5108C1.62 13.5327 1.63032 13.5532 1.64435 13.5711L2.22973 14.3325C2.24364 14.3503 2.26094 14.3652 2.28061 14.3764C2.30029 14.3875 2.32198 14.3947 2.34442 14.3974C2.36687 14.4002 2.38964 14.3985 2.41143 14.3924C2.43323 14.3864 2.45361 14.3761 2.47143 14.3622L13.4572 5.89993L12.6601 4.86534L1.67587 13.3291Z" fill="white"/>
<path d="M2.36857 14.994C2.25114 14.9943 2.1352 14.9677 2.02969 14.9161C1.92418 14.8646 1.83191 14.7895 1.76 14.6967L1.17343 13.9341C1.11178 13.8544 1.06647 13.7632 1.0401 13.666C1.01373 13.5687 1.00683 13.4671 1.01978 13.3672C1.03273 13.2672 1.06529 13.1708 1.11558 13.0835C1.16588 12.9961 1.23292 12.9196 1.31287 12.8582L12.5326 4.21307C12.5954 4.16537 12.6743 4.14404 12.7526 4.15361C12.8307 4.16383 12.9016 4.20468 12.9497 4.26717L14.1091 5.77239C14.157 5.83481 14.1782 5.91366 14.1681 5.99168C14.1579 6.06969 14.1173 6.14051 14.055 6.18861L2.83562 14.8349C2.70189 14.9383 2.53759 14.9942 2.36857 14.994ZM1.67587 13.3291C1.65773 13.3428 1.6425 13.3599 1.63107 13.3796C1.61965 13.3992 1.61225 13.4209 1.60931 13.4435C1.60638 13.466 1.60797 13.4889 1.61398 13.5108C1.62 13.5327 1.63032 13.5532 1.64435 13.5711L2.22973 14.3325C2.24364 14.3503 2.26094 14.3652 2.28061 14.3764C2.30029 14.3875 2.32198 14.3947 2.34442 14.3974C2.36687 14.4002 2.38964 14.3985 2.41143 14.3924C2.43323 14.3864 2.45361 14.3761 2.47143 14.3622L13.4572 5.89993L12.6601 4.86534L1.67587 13.3291Z" stroke="white" stroke-width="0.2" mask="url(#path-4-outside-4)"/>
<mask id="path-5-outside-5" maskUnits="userSpaceOnUse" x="13.9244" y="0.814453" width="4" height="4" fill="black">
<rect fill="white" x="13.9244" y="0.814453" width="4" height="4"/>
<path d="M16.3811 4.31885C16.3356 4.31891 16.2906 4.30851 16.2497 4.28846C16.2089 4.26841 16.1731 4.23924 16.1453 4.2032L14.9859 2.69769C14.938 2.63527 14.9168 2.55641 14.9269 2.4784C14.9371 2.40039 14.9777 2.32957 15.04 2.28147L15.4398 1.97347C15.601 1.84962 15.8048 1.79472 16.0064 1.8208C16.208 1.84688 16.3911 1.95181 16.5155 2.11261L17.102 2.87428C17.226 3.03544 17.281 3.23921 17.2549 3.44087C17.2289 3.64253 17.1238 3.8256 16.9629 3.9499L16.563 4.25701C16.5109 4.29719 16.4469 4.31894 16.3811 4.31885ZM15.6378 2.57015L16.4346 3.60474L16.5993 3.47809C16.6348 3.44957 16.6578 3.40833 16.6633 3.36313C16.6689 3.31793 16.6566 3.27236 16.629 3.23609L16.0448 2.47471C16.0165 2.43889 15.9753 2.41567 15.9299 2.4101C15.8846 2.40454 15.839 2.41707 15.8028 2.44498L15.6378 2.57015Z"/>
</mask>
<path d="M16.3811 4.31885C16.3356 4.31891 16.2906 4.30851 16.2497 4.28846C16.2089 4.26841 16.1731 4.23924 16.1453 4.2032L14.9859 2.69769C14.938 2.63527 14.9168 2.55641 14.9269 2.4784C14.9371 2.40039 14.9777 2.32957 15.04 2.28147L15.4398 1.97347C15.601 1.84962 15.8048 1.79472 16.0064 1.8208C16.208 1.84688 16.3911 1.95181 16.5155 2.11261L17.102 2.87428C17.226 3.03544 17.281 3.23921 17.2549 3.44087C17.2289 3.64253 17.1238 3.8256 16.9629 3.9499L16.563 4.25701C16.5109 4.29719 16.4469 4.31894 16.3811 4.31885ZM15.6378 2.57015L16.4346 3.60474L16.5993 3.47809C16.6348 3.44957 16.6578 3.40833 16.6633 3.36313C16.6689 3.31793 16.6566 3.27236 16.629 3.23609L16.0448 2.47471C16.0165 2.43889 15.9753 2.41567 15.9299 2.4101C15.8846 2.40454 15.839 2.41707 15.8028 2.44498L15.6378 2.57015Z" fill="white"/>
<path d="M16.3811 4.31885C16.3356 4.31891 16.2906 4.30851 16.2497 4.28846C16.2089 4.26841 16.1731 4.23924 16.1453 4.2032L14.9859 2.69769C14.938 2.63527 14.9168 2.55641 14.9269 2.4784C14.9371 2.40039 14.9777 2.32957 15.04 2.28147L15.4398 1.97347C15.601 1.84962 15.8048 1.79472 16.0064 1.8208C16.208 1.84688 16.3911 1.95181 16.5155 2.11261L17.102 2.87428C17.226 3.03544 17.281 3.23921 17.2549 3.44087C17.2289 3.64253 17.1238 3.8256 16.9629 3.9499L16.563 4.25701C16.5109 4.29719 16.4469 4.31894 16.3811 4.31885ZM15.6378 2.57015L16.4346 3.60474L16.5993 3.47809C16.6348 3.44957 16.6578 3.40833 16.6633 3.36313C16.6689 3.31793 16.6566 3.27236 16.629 3.23609L16.0448 2.47471C16.0165 2.43889 15.9753 2.41567 15.9299 2.4101C15.8846 2.40454 15.839 2.41707 15.8028 2.44498L15.6378 2.57015Z" stroke="white" stroke-width="0.2" mask="url(#path-5-outside-5)"/>
<mask id="path-6-outside-6" maskUnits="userSpaceOnUse" x="4.3252" y="6.85059" width="17" height="15" fill="black">
<rect fill="white" x="4.3252" y="6.85059" width="17" height="15"/>
<path d="M20.6895 21.4055H5.62249C5.54364 21.4055 5.46803 21.3742 5.41227 21.3184C5.35652 21.2627 5.3252 21.1871 5.3252 21.1082V18.9956C5.32519 18.9514 5.33503 18.9078 5.354 18.8679C5.37298 18.828 5.40062 18.7928 5.4349 18.7649L7.90811 16.7558C7.93036 16.7377 7.95509 16.723 7.98155 16.7121L13.0308 14.6117L13.7649 12.4048C13.7845 12.3455 13.8224 12.294 13.873 12.2574C13.9237 12.2209 13.9845 12.2012 14.047 12.2012H16.8181L17.1912 9.80496C17.1983 9.75925 17.216 9.71583 17.2428 9.67816C17.2697 9.64048 17.3049 9.60959 17.3458 9.58793L20.5516 7.88531C20.5969 7.86126 20.6476 7.84933 20.6989 7.85069C20.7502 7.85205 20.8002 7.86665 20.8442 7.89308C20.8881 7.9195 20.9245 7.95684 20.9498 8.00148C20.975 8.04612 20.9883 8.09654 20.9883 8.14782V21.1082C20.9883 21.1474 20.9806 21.1862 20.9655 21.2223C20.9505 21.2585 20.9285 21.2913 20.9007 21.319C20.8729 21.3466 20.84 21.3684 20.8037 21.3833C20.7675 21.3982 20.7287 21.4057 20.6895 21.4055ZM5.91979 20.8109H20.3922V8.64253L17.7546 10.0434L17.3651 12.5443C17.3542 12.6143 17.3186 12.6782 17.2648 12.7243C17.2109 12.7704 17.1423 12.7958 17.0714 12.7958H14.2602L13.5526 14.9277C13.5391 14.9681 13.5171 15.0051 13.4882 15.0363C13.4592 15.0676 13.4239 15.0922 13.3846 15.1087L8.24941 17.2433L5.91979 19.1371V20.8109Z"/>
</mask>
<path d="M20.6895 21.4055H5.62249C5.54364 21.4055 5.46803 21.3742 5.41227 21.3184C5.35652 21.2627 5.3252 21.1871 5.3252 21.1082V18.9956C5.32519 18.9514 5.33503 18.9078 5.354 18.8679C5.37298 18.828 5.40062 18.7928 5.4349 18.7649L7.90811 16.7558C7.93036 16.7377 7.95509 16.723 7.98155 16.7121L13.0308 14.6117L13.7649 12.4048C13.7845 12.3455 13.8224 12.294 13.873 12.2574C13.9237 12.2209 13.9845 12.2012 14.047 12.2012H16.8181L17.1912 9.80496C17.1983 9.75925 17.216 9.71583 17.2428 9.67816C17.2697 9.64048 17.3049 9.60959 17.3458 9.58793L20.5516 7.88531C20.5969 7.86126 20.6476 7.84933 20.6989 7.85069C20.7502 7.85205 20.8002 7.86665 20.8442 7.89308C20.8881 7.9195 20.9245 7.95684 20.9498 8.00148C20.975 8.04612 20.9883 8.09654 20.9883 8.14782V21.1082C20.9883 21.1474 20.9806 21.1862 20.9655 21.2223C20.9505 21.2585 20.9285 21.2913 20.9007 21.319C20.8729 21.3466 20.84 21.3684 20.8037 21.3833C20.7675 21.3982 20.7287 21.4057 20.6895 21.4055ZM5.91979 20.8109H20.3922V8.64253L17.7546 10.0434L17.3651 12.5443C17.3542 12.6143 17.3186 12.6782 17.2648 12.7243C17.2109 12.7704 17.1423 12.7958 17.0714 12.7958H14.2602L13.5526 14.9277C13.5391 14.9681 13.5171 15.0051 13.4882 15.0363C13.4592 15.0676 13.4239 15.0922 13.3846 15.1087L8.24941 17.2433L5.91979 19.1371V20.8109Z" fill="white"/>
<path d="M20.6895 21.4055H5.62249C5.54364 21.4055 5.46803 21.3742 5.41227 21.3184C5.35652 21.2627 5.3252 21.1871 5.3252 21.1082V18.9956C5.32519 18.9514 5.33503 18.9078 5.354 18.8679C5.37298 18.828 5.40062 18.7928 5.4349 18.7649L7.90811 16.7558C7.93036 16.7377 7.95509 16.723 7.98155 16.7121L13.0308 14.6117L13.7649 12.4048C13.7845 12.3455 13.8224 12.294 13.873 12.2574C13.9237 12.2209 13.9845 12.2012 14.047 12.2012H16.8181L17.1912 9.80496C17.1983 9.75925 17.216 9.71583 17.2428 9.67816C17.2697 9.64048 17.3049 9.60959 17.3458 9.58793L20.5516 7.88531C20.5969 7.86126 20.6476 7.84933 20.6989 7.85069C20.7502 7.85205 20.8002 7.86665 20.8442 7.89308C20.8881 7.9195 20.9245 7.95684 20.9498 8.00148C20.975 8.04612 20.9883 8.09654 20.9883 8.14782V21.1082C20.9883 21.1474 20.9806 21.1862 20.9655 21.2223C20.9505 21.2585 20.9285 21.2913 20.9007 21.319C20.8729 21.3466 20.84 21.3684 20.8037 21.3833C20.7675 21.3982 20.7287 21.4057 20.6895 21.4055ZM5.91979 20.8109H20.3922V8.64253L17.7546 10.0434L17.3651 12.5443C17.3542 12.6143 17.3186 12.6782 17.2648 12.7243C17.2109 12.7704 17.1423 12.7958 17.0714 12.7958H14.2602L13.5526 14.9277C13.5391 14.9681 13.5171 15.0051 13.4882 15.0363C13.4592 15.0676 13.4239 15.0922 13.3846 15.1087L8.24941 17.2433L5.91979 19.1371V20.8109Z" stroke="white" stroke-width="0.2" mask="url(#path-6-outside-6)"/>
</svg>
