<svg xmlns="http://www.w3.org/2000/svg" width="27" height="27" viewBox="0 0 27 27" fill="none">
<g filter="url(#filter0_d)">
<path d="M23.45 12.526C23.4494 12.5255 23.4489 12.5248 23.4484 12.5243L14.4741 3.55037C14.0916 3.16768 13.583 2.95703 13.042 2.95703C12.501 2.95703 11.9925 3.16768 11.6098 3.55037L2.64019 12.5198C2.63717 12.5228 2.63398 12.526 2.63113 12.529C1.8456 13.3191 1.84695 14.6009 2.63499 15.389C2.99502 15.7492 3.47036 15.9576 3.97877 15.9796C3.99958 15.9816 4.0204 15.9826 4.04138 15.9826H4.39889V22.5867C4.39889 23.8938 5.46237 24.9571 6.76939 24.9571H10.2804C10.6364 24.9571 10.925 24.6684 10.925 24.3125V19.1348C10.925 18.5384 11.4102 18.0534 12.0066 18.0534H14.0775C14.6738 18.0534 15.1589 18.5384 15.1589 19.1348V24.3125C15.1589 24.6684 15.4474 24.9571 15.8034 24.9571H19.3144C20.6216 24.9571 21.6849 23.8938 21.6849 22.5867V15.9826H22.0166C22.5574 15.9826 23.066 15.772 23.4489 15.3891C24.2377 14.5999 24.2381 13.3157 23.45 12.526ZM22.5373 14.4777C22.3981 14.6169 22.2132 14.6936 22.0166 14.6936H21.0404C20.6844 14.6936 20.3959 14.9821 20.3959 15.3381V22.5867C20.3959 23.1829 19.9108 23.668 19.3144 23.668H16.448V19.1348C16.448 17.8278 15.3846 16.7643 14.0775 16.7643H12.0066C10.6994 16.7643 9.63589 17.8278 9.63589 19.1348V23.668H6.76939C6.1732 23.668 5.68796 23.1829 5.68796 22.5867V15.3381C5.68796 14.9821 5.39943 14.6936 5.04342 14.6936H4.08401C4.07394 14.6929 4.06404 14.6924 4.0538 14.6922C3.86178 14.6889 3.68168 14.6127 3.54673 14.4775C3.25971 14.1905 3.25971 13.7234 3.54673 13.4362C3.5469 13.4362 3.5469 13.4361 3.54707 13.4359L3.54757 13.4354L12.5215 4.46178C12.6605 4.32263 12.8453 4.2461 13.042 4.2461C13.2386 4.2461 13.4234 4.32263 13.5625 4.46178L22.5344 13.4335C22.5358 13.4349 22.5373 13.4362 22.5386 13.4376C22.8241 13.7251 22.8236 14.1912 22.5373 14.4777Z" fill="#CF68FF"/>
</g>
<defs>
<filter id="filter0_d" x="0.0429688" y="0.957031" width="25.9978" height="26" filterUnits="userSpaceOnUse" color-interpolation-filters="sRGB">
<feFlood flood-opacity="0" result="BackgroundImageFix"/>
<feColorMatrix in="SourceAlpha" type="matrix" values="0 0 0 0 0 0 0 0 0 0 0 0 0 0 0 0 0 0 127 0" result="hardAlpha"/>
<feOffset/>
<feGaussianBlur stdDeviation="1"/>
<feColorMatrix type="matrix" values="0 0 0 0 0.691667 0 0 0 0 0.295833 0 0 0 0 1 0 0 0 1 0"/>
<feBlend mode="normal" in2="BackgroundImageFix" result="effect1_dropShadow"/>
<feBlend mode="normal" in="SourceGraphic" in2="effect1_dropShadow" result="shape"/>
</filter>
</defs>
</svg>
