<svg xmlns="http://www.w3.org/2000/svg" width="22" height="22" viewBox="0 0 22 22" fill="none">
<g filter="url(#filter0_d)">
<path d="M12.395 2.31055H11.9376V11.6868L5.25989 18.3646L5.58004 18.6848C7.36382 20.5143 9.7879 21.5205 12.3493 21.5205C17.6548 21.5205 22 17.2211 22 11.9155C22 6.60993 17.7006 2.31055 12.395 2.31055ZM12.3493 20.6058C10.1996 20.6058 8.14134 19.8282 6.54054 18.3646L12.8066 12.0985V3.22529C17.3804 3.45398 21.0395 7.29599 21.0395 11.9155C21.0395 16.718 17.1518 20.6058 12.3493 20.6058Z" fill="#CF68FF"/>
<path d="M0.0456543 12.4171L0.0914102 12.8744C0.274341 15.0698 1.2806 17.1738 2.8357 18.7289L3.15585 19.0491L10.8856 11.3193L0.0456543 12.4171ZM1.0062 13.2403L8.37003 12.5085L3.1559 17.7227C2.01242 16.4878 1.2806 14.8869 1.0062 13.2403Z" fill="#CF68FF"/>
<path d="M9.60498 0.480469C4.29938 0.480469 0 4.77985 0 10.0855C0 10.4056 0 10.7258 0.0457559 11.046L0.0915118 11.5034L10.0624 10.4971V0.480469H9.60498ZM9.14761 9.67382L0.914747 10.4971C0.914747 10.3599 0.914747 10.2227 0.914747 10.0854C0.914747 5.42015 4.57378 1.6239 9.14761 1.39521V9.67382Z" fill="#CF68FF"/>
</g>
<defs>
<filter id="filter0_d" x="0.0429688" y="0.957031" width="25.9978" height="26" filterUnits="userSpaceOnUse" color-interpolation-filters="sRGB">
<feFlood flood-opacity="0" result="BackgroundImageFix"/>
<feColorMatrix in="SourceAlpha" type="matrix" values="0 0 0 0 0 0 0 0 0 0 0 0 0 0 0 0 0 0 127 0" result="hardAlpha"/>
<feOffset/>
<feGaussianBlur stdDeviation="1"/>
<feColorMatrix type="matrix" values="0 0 0 0 0.691667 0 0 0 0 0.295833 0 0 0 0 1 0 0 0 1 0"/>
<feBlend mode="normal" in2="BackgroundImageFix" result="effect1_dropShadow"/>
<feBlend mode="normal" in="SourceGraphic" in2="effect1_dropShadow" result="shape"/>
</filter>
</defs>
</svg>
