<svg xmlns="http://www.w3.org/2000/svg" width="22" height="22" viewBox="0 0 22 22" fill="none">
<g clip-path="url(#clip0)">
<mask id="path-1-outside-1" maskUnits="userSpaceOnUse" x="-0.13147" y="9.0127" width="23" height="14" fill="black">
<rect fill="white" x="-0.13147" y="9.0127" width="23" height="14"/>
<path d="M21.8194 15.8697L14.4686 10.0817C14.2591 9.91676 13.9495 10.066 13.9495 10.3337V14.0646H8.77232C8.59516 14.0646 8.4516 14.2082 8.4516 14.3853C8.4516 14.5625 8.59516 14.706 8.77232 14.706H14.2702C14.4474 14.706 14.5909 14.5625 14.5909 14.3853V10.9944L21.0948 16.1156L14.533 21.0369V17.8003C14.533 17.6231 14.3895 17.4796 14.2123 17.4796H6.80367C3.91991 17.4796 2.1771 15.7708 1.62968 12.9841C1.82033 13.1462 2.05163 13.3223 2.32595 13.4979C4.2961 14.7588 6.34549 14.7061 7.51093 14.7061C7.68809 14.7061 7.83165 14.5625 7.83165 14.3854C7.83165 14.2082 7.68809 14.0647 7.51093 14.0647C6.6015 14.0647 4.58361 14.1663 2.70068 12.9761C1.84869 12.4375 1.45527 11.8908 1.45201 11.8863C1.27025 11.6267 0.86007 11.762 0.868663 12.0788C0.870296 12.1403 0.917733 13.5999 1.66247 15.0794C2.36097 16.467 3.81984 18.121 6.80358 18.121H13.8916V21.6783C13.8916 21.9422 14.1938 22.093 14.4047 21.9348L21.8134 16.3783C21.893 16.3186 21.9405 16.2252 21.9416 16.1256C21.9428 16.0258 21.8977 15.9313 21.8194 15.8697Z"/>
</mask>
<path d="M21.8194 15.8697L14.4686 10.0817C14.2591 9.91676 13.9495 10.066 13.9495 10.3337V14.0646H8.77232C8.59516 14.0646 8.4516 14.2082 8.4516 14.3853C8.4516 14.5625 8.59516 14.706 8.77232 14.706H14.2702C14.4474 14.706 14.5909 14.5625 14.5909 14.3853V10.9944L21.0948 16.1156L14.533 21.0369V17.8003C14.533 17.6231 14.3895 17.4796 14.2123 17.4796H6.80367C3.91991 17.4796 2.1771 15.7708 1.62968 12.9841C1.82033 13.1462 2.05163 13.3223 2.32595 13.4979C4.2961 14.7588 6.34549 14.7061 7.51093 14.7061C7.68809 14.7061 7.83165 14.5625 7.83165 14.3854C7.83165 14.2082 7.68809 14.0647 7.51093 14.0647C6.6015 14.0647 4.58361 14.1663 2.70068 12.9761C1.84869 12.4375 1.45527 11.8908 1.45201 11.8863C1.27025 11.6267 0.86007 11.762 0.868663 12.0788C0.870296 12.1403 0.917733 13.5999 1.66247 15.0794C2.36097 16.467 3.81984 18.121 6.80358 18.121H13.8916V21.6783C13.8916 21.9422 14.1938 22.093 14.4047 21.9348L21.8134 16.3783C21.893 16.3186 21.9405 16.2252 21.9416 16.1256C21.9428 16.0258 21.8977 15.9313 21.8194 15.8697Z" fill="white"/>
<path d="M21.8194 15.8697L14.4686 10.0817C14.2591 9.91676 13.9495 10.066 13.9495 10.3337V14.0646H8.77232C8.59516 14.0646 8.4516 14.2082 8.4516 14.3853C8.4516 14.5625 8.59516 14.706 8.77232 14.706H14.2702C14.4474 14.706 14.5909 14.5625 14.5909 14.3853V10.9944L21.0948 16.1156L14.533 21.0369V17.8003C14.533 17.6231 14.3895 17.4796 14.2123 17.4796H6.80367C3.91991 17.4796 2.1771 15.7708 1.62968 12.9841C1.82033 13.1462 2.05163 13.3223 2.32595 13.4979C4.2961 14.7588 6.34549 14.7061 7.51093 14.7061C7.68809 14.7061 7.83165 14.5625 7.83165 14.3854C7.83165 14.2082 7.68809 14.0647 7.51093 14.0647C6.6015 14.0647 4.58361 14.1663 2.70068 12.9761C1.84869 12.4375 1.45527 11.8908 1.45201 11.8863C1.27025 11.6267 0.86007 11.762 0.868663 12.0788C0.870296 12.1403 0.917733 13.5999 1.66247 15.0794C2.36097 16.467 3.81984 18.121 6.80358 18.121H13.8916V21.6783C13.8916 21.9422 14.1938 22.093 14.4047 21.9348L21.8134 16.3783C21.893 16.3186 21.9405 16.2252 21.9416 16.1256C21.9428 16.0258 21.8977 15.9313 21.8194 15.8697Z" stroke="white" stroke-width="0.4" mask="url(#path-1-outside-1)"/>
<mask id="path-2-outside-2" maskUnits="userSpaceOnUse" x="-0.94165" y="-1" width="23" height="14" fill="black">
<rect fill="white" x="-0.94165" y="-1" width="23" height="14"/>
<path d="M20.3374 6.91992C19.6389 5.53238 18.1799 3.87834 15.1962 3.87834H14.3735C14.1963 3.87834 14.0528 4.0219 14.0528 4.19906C14.0528 4.37622 14.1963 4.51978 14.3735 4.51978H15.1962C18.0801 4.51978 19.8228 6.22864 20.3702 9.01529C18.9589 7.81505 17.07 7.29332 15.1962 7.29332H7.72966C7.5525 7.29332 7.40894 7.43688 7.40894 7.61404V11.005L0.905161 5.88378L7.46686 0.96249V4.19906C7.46686 4.37622 7.61042 4.51978 7.78758 4.51978H13.1549C13.3321 4.51978 13.4756 4.37622 13.4756 4.19906C13.4756 4.0219 13.3321 3.87834 13.1549 3.87834H8.10826V0.321096C8.10826 0.0574835 7.80632 -0.0938522 7.59512 0.0645303L0.18651 5.62107C0.0181156 5.74735 0.0151937 5.99936 0.180537 6.1296L7.53127 11.9176C7.74143 12.083 8.05038 11.9326 8.05038 11.6656V7.93471H15.1962C17.164 7.93471 18.5136 8.52674 19.2992 9.02328C20.1512 9.56185 20.5446 10.1085 20.5479 10.1131C20.7295 10.3726 21.1398 10.2373 21.1312 9.92055C21.1296 9.85911 21.0821 8.39942 20.3374 6.91992Z"/>
</mask>
<path d="M20.3374 6.91992C19.6389 5.53238 18.1799 3.87834 15.1962 3.87834H14.3735C14.1963 3.87834 14.0528 4.0219 14.0528 4.19906C14.0528 4.37622 14.1963 4.51978 14.3735 4.51978H15.1962C18.0801 4.51978 19.8228 6.22864 20.3702 9.01529C18.9589 7.81505 17.07 7.29332 15.1962 7.29332H7.72966C7.5525 7.29332 7.40894 7.43688 7.40894 7.61404V11.005L0.905161 5.88378L7.46686 0.96249V4.19906C7.46686 4.37622 7.61042 4.51978 7.78758 4.51978H13.1549C13.3321 4.51978 13.4756 4.37622 13.4756 4.19906C13.4756 4.0219 13.3321 3.87834 13.1549 3.87834H8.10826V0.321096C8.10826 0.0574835 7.80632 -0.0938522 7.59512 0.0645303L0.18651 5.62107C0.0181156 5.74735 0.0151937 5.99936 0.180537 6.1296L7.53127 11.9176C7.74143 12.083 8.05038 11.9326 8.05038 11.6656V7.93471H15.1962C17.164 7.93471 18.5136 8.52674 19.2992 9.02328C20.1512 9.56185 20.5446 10.1085 20.5479 10.1131C20.7295 10.3726 21.1398 10.2373 21.1312 9.92055C21.1296 9.85911 21.0821 8.39942 20.3374 6.91992Z" fill="white"/>
<path d="M20.3374 6.91992C19.6389 5.53238 18.1799 3.87834 15.1962 3.87834H14.3735C14.1963 3.87834 14.0528 4.0219 14.0528 4.19906C14.0528 4.37622 14.1963 4.51978 14.3735 4.51978H15.1962C18.0801 4.51978 19.8228 6.22864 20.3702 9.01529C18.9589 7.81505 17.07 7.29332 15.1962 7.29332H7.72966C7.5525 7.29332 7.40894 7.43688 7.40894 7.61404V11.005L0.905161 5.88378L7.46686 0.96249V4.19906C7.46686 4.37622 7.61042 4.51978 7.78758 4.51978H13.1549C13.3321 4.51978 13.4756 4.37622 13.4756 4.19906C13.4756 4.0219 13.3321 3.87834 13.1549 3.87834H8.10826V0.321096C8.10826 0.0574835 7.80632 -0.0938522 7.59512 0.0645303L0.18651 5.62107C0.0181156 5.74735 0.0151937 5.99936 0.180537 6.1296L7.53127 11.9176C7.74143 12.083 8.05038 11.9326 8.05038 11.6656V7.93471H15.1962C17.164 7.93471 18.5136 8.52674 19.2992 9.02328C20.1512 9.56185 20.5446 10.1085 20.5479 10.1131C20.7295 10.3726 21.1398 10.2373 21.1312 9.92055C21.1296 9.85911 21.0821 8.39942 20.3374 6.91992Z" stroke="white" stroke-width="0.4" mask="url(#path-2-outside-2)"/>
</g>
<defs>
<clipPath id="clip0">
<rect width="22" height="22" fill="white"/>
</clipPath>
</defs>
</svg>
