<svg xmlns="http://www.w3.org/2000/svg" width="20" height="24" viewBox="0 0 20 24" fill="none">
<g filter="url(#filter0_d)">
<path d="M16.6709 5.76673L16.6231 5.78153C16.5808 5.64493 16.4877 5.53309 16.3606 5.46633L9.71033 1.97097C9.44795 1.8331 9.12222 1.93376 8.98428 2.19503L4.94889 9.83816H5.98928L8.70485 4.6948L8.70485 4.6948C8.82842 4.4608 9.1181 4.3711 9.35224 4.49414C9.90899 4.7867 10.6005 4.57301 10.8935 4.01799L10.9377 4.04133L10.8935 4.01799C11.0171 3.78394 11.3068 3.69429 11.5409 3.81733L11.5176 3.86159L11.5409 3.81733L13.7961 5.0026L13.7961 5.00261C13.9088 5.06189 13.9934 5.16353 14.0311 5.28519M16.6709 5.76673L13.9833 5.3M16.6709 5.76673L16.6231 5.78154C16.6653 5.91769 16.6519 6.06188 16.5853 6.18804L14.6581 9.8382H13.6178L14.6755 7.83491L14.6313 7.81157L14.6755 7.83491C14.735 7.72224 14.7472 7.59061 14.7094 7.46891M16.6709 5.76673L14.7094 7.46891M14.0311 5.28519L13.9833 5.3M14.0311 5.28519C14.0311 5.28519 14.0311 5.28519 14.0311 5.28518L13.9833 5.3M14.0311 5.28519C14.0688 5.40689 14.0566 5.53853 13.9971 5.65119L13.9529 5.62785M13.9833 5.3C14.0171 5.40901 14.0062 5.52692 13.9529 5.62785M13.9529 5.62785L13.9971 5.6512C13.8555 5.91954 13.8269 6.22658 13.9167 6.51627C14.0067 6.80667 14.2047 7.04453 14.4744 7.18632L14.4745 7.18632C14.5872 7.24561 14.6717 7.34725 14.7094 7.46891M13.9529 5.62785L14.7094 7.46891M14.7094 7.46891L14.6617 7.48371L14.7094 7.4689C14.7094 7.4689 14.7094 7.4689 14.7094 7.46891ZM8.13589 1.74708L8.13589 1.74709L3.864 9.8382H2.82644C1.82328 9.8382 1.00725 10.6543 1.00725 11.6574V21.2308C1.00725 22.2339 1.82328 23.05 2.82644 23.05H16.2531C17.2562 23.05 18.0723 22.2339 18.0723 21.2308V18.6682H18.5131C18.778 18.6682 18.9928 18.4534 18.9928 18.1885V14.6997C18.9927 14.4348 18.778 14.22 18.513 14.22H18.0722V11.6574C18.0722 10.6543 17.2562 9.8382 16.253 9.8382H15.743L17.4336 6.63597C17.6199 6.28315 17.6576 5.87866 17.5394 5.49755C17.4211 5.116 17.1609 4.80321 16.8069 4.61712L16.7836 4.66138L16.8069 4.61712L10.1567 1.12176C9.42704 0.738206 8.52056 1.01869 8.13589 1.74708ZM13.0003 6.8003C13.1177 7.17922 13.335 7.50996 13.6283 7.76345L12.5329 9.8382H7.07416L9.3554 5.51749C10.1242 5.71694 10.9484 5.46228 11.4694 4.86366L12.9731 5.65395C12.8751 6.02775 12.8831 6.42226 13.0003 6.8003ZM17.1129 21.2308C17.1129 21.7049 16.7271 22.0906 16.2531 22.0906H2.82644C2.35238 22.0906 1.96664 21.7049 1.96664 21.2308V11.6574C1.96664 11.1833 2.35238 10.7976 2.82644 10.7976H16.2531C16.7271 10.7976 17.1129 11.1833 17.1129 11.6574V14.22H15.4851C14.2587 14.22 13.261 15.2177 13.261 16.4441C13.261 17.6705 14.2587 18.6682 15.4851 18.6682H17.1129V21.2308ZM18.0334 17.7088H15.4851C14.7877 17.7088 14.2204 17.1414 14.2204 16.4441C14.2204 15.7468 14.7877 15.1794 15.4851 15.1794H18.0334V17.7088Z" fill="#CF68FF" stroke="#CF68FF" stroke-width="0.1"/>
</g>
<defs>
<filter id="filter0_d" x="0.0429688" y="0.957031" width="25.9978" height="26" filterUnits="userSpaceOnUse" color-interpolation-filters="sRGB">
<feFlood flood-opacity="0" result="BackgroundImageFix"/>
<feColorMatrix in="SourceAlpha" type="matrix" values="0 0 0 0 0 0 0 0 0 0 0 0 0 0 0 0 0 0 127 0" result="hardAlpha"/>
<feOffset/>
<feGaussianBlur stdDeviation="1"/>
<feColorMatrix type="matrix" values="0 0 0 0 0.691667 0 0 0 0 0.295833 0 0 0 0 1 0 0 0 1 0"/>
<feBlend mode="normal" in2="BackgroundImageFix" result="effect1_dropShadow"/>
<feBlend mode="normal" in="SourceGraphic" in2="effect1_dropShadow" result="shape"/>
</filter>
</defs>
</svg>
