<svg xmlns="http://www.w3.org/2000/svg" width="84" height="80" viewBox="0 0 84 80" fill="none">
<g filter="url(#filter0_d)">
<path fill-rule="evenodd" clip-rule="evenodd" d="M21.8336 66.7797L22.6487 67.5949C29.0395 74.1496 37.7245 77.7558 46.906 77.7558C65.926 77.7558 81.4995 62.3424 81.4995 43.3286C81.4995 24.3116 66.0893 8.90137 47.0724 8.90137H45.9092V42.7041L21.8336 66.7797ZM25.0601 66.7959L48.0692 43.7868V11.2021L48.5941 11.2283C65.4934 12.0733 79.0068 26.265 79.0068 43.3286C79.0068 61.0684 64.6458 75.4294 46.906 75.4294C38.9669 75.4294 31.3613 72.5572 25.446 67.1488L25.0601 66.7959Z" fill="#CF68FF"/>
<path fill-rule="evenodd" clip-rule="evenodd" d="M46.906 77.7558C37.7245 77.7558 29.0395 74.1496 22.6487 67.5949L21.8336 66.7797L45.9092 42.7041V8.90137H47.0724C66.0893 8.90137 81.4995 24.3116 81.4995 43.3286C81.4995 62.3424 65.926 77.7558 46.906 77.7558ZM48.0692 11.2021L48.5941 11.2283C65.4934 12.0733 79.0068 26.265 79.0068 43.3286C79.0068 61.0684 64.6458 75.4294 46.906 75.4294C38.9669 75.4294 31.3613 72.5572 25.446 67.1488L25.0601 66.7959L48.0692 43.7868V11.2021Z" fill="#CF68FF"/>
<path fill-rule="evenodd" clip-rule="evenodd" d="M2.83141 46.7753C3.48643 54.6365 7.09153 62.178 12.6659 67.7524L13.4765 68.563L40.2387 41.8008L2.71398 45.6008L2.83141 46.7753ZM5.07865 47.7027L33.7802 44.8503L13.4629 65.1678L13.1098 64.7865C8.87906 60.2175 6.17871 54.3039 5.16646 48.2296L5.07865 47.7027Z" fill="#CF68FF"/>
<path fill-rule="evenodd" clip-rule="evenodd" d="M12.6659 67.7524C7.09153 62.178 3.48643 54.6365 2.83141 46.7753L2.71398 45.6008L40.2387 41.8008L13.4765 68.563L12.6659 67.7524ZM13.4629 65.1678L13.1098 64.7865C8.87906 60.2175 6.17871 54.3039 5.16646 48.2296L5.07865 47.7027L33.7802 44.8503L13.4629 65.1678Z" fill="#CF68FF"/>
<path fill-rule="evenodd" clip-rule="evenodd" d="M2.66285 40.1068L2.78047 41.2826L38.0905 37.7191V2.24707H36.9272C17.9103 2.24707 2.5 17.6573 2.5 36.6744C2.5 37.8443 2.50083 38.9732 2.66136 40.0964L2.66285 40.1068ZM35.764 35.6299L4.82635 38.7237V36.6742C4.82635 19.4426 18.3414 5.41891 35.2391 4.57404L35.764 4.54779V35.6299Z" fill="#CF68FF"/>
<path fill-rule="evenodd" clip-rule="evenodd" d="M38.0905 37.7191L2.78047 41.2826L2.66285 40.1068L2.66136 40.0964C2.50083 38.9732 2.5 37.8443 2.5 36.6744C2.5 17.6573 17.9103 2.24707 36.9272 2.24707H38.0905V37.7191ZM4.82635 36.6742C4.82635 19.4426 18.3414 5.41891 35.2391 4.57404L35.764 4.54779V35.6299L4.82635 38.7237V36.6742Z" fill="#CF68FF"/>
</g>
<defs>
<filter id="filter0_d" x="0" y="-2" width="84" height="84" filterUnits="userSpaceOnUse" color-interpolation-filters="sRGB">
<feFlood flood-opacity="0" result="BackgroundImageFix"/>
<feColorMatrix in="SourceAlpha" type="matrix" values="0 0 0 0 0 0 0 0 0 0 0 0 0 0 0 0 0 0 127 0" result="hardAlpha"/>
<feOffset/>
<feGaussianBlur stdDeviation="1"/>
<feColorMatrix type="matrix" values="0 0 0 0 0.691667 0 0 0 0 0.295833 0 0 0 0 1 0 0 0 1 0"/>
<feBlend mode="normal" in2="BackgroundImageFix" result="effect1_dropShadow"/>
<feBlend mode="normal" in="SourceGraphic" in2="effect1_dropShadow" result="shape"/>
</filter>
</defs>
</svg>
