<svg xmlns="http://www.w3.org/2000/svg" width="84" height="84" viewBox="0 0 84 84" fill="none">
<g filter="url(#filter0_d)">
<path d="M70.2842 13.7158C62.7292 6.16078 52.6844 2 42 2C36.6328 2 31.4231 3.04563 26.5156 5.10766L27.4291 7.28156C31.6858 5.49297 36.1855 4.51938 40.8209 4.37812V10.7905C33.097 11.0786 26.0822 14.1841 20.7755 19.1078L16.2328 14.5655C18.4047 12.5208 20.8352 10.7175 23.4934 9.21391L22.3322 7.16156C16.2706 10.5906 11.1814 15.5666 7.615 21.5514C3.94172 27.7153 2 34.7864 2 42C2 52.6844 6.16078 62.7294 13.7158 70.2842C21.2708 77.8391 31.3155 82 42 82C52.6844 82 62.7292 77.8392 70.2842 70.2842C77.8394 62.7292 82 52.6844 82 42C82 31.3156 77.8394 21.2708 70.2842 13.7158ZM79.6219 40.8209H73.2095C72.9272 33.2547 69.9423 26.3681 65.192 21.1016L69.7258 16.5678C75.6317 23.0016 79.3331 31.4886 79.6219 40.8209ZM43.1791 4.37828C52.827 4.67687 61.5716 8.6225 68.0777 14.8811L63.5486 19.4102C58.205 14.3105 51.0605 11.0847 43.1791 10.7905V4.37828ZM14.5672 16.2344L19.1081 20.7753C14.1842 26.0822 11.0787 33.097 10.7906 40.8209H4.37719C4.66812 31.567 8.37313 22.8438 14.5672 16.2344ZM4.37828 43.1791H10.7903C11.0844 51.0605 14.3103 58.2052 19.41 63.5487L14.8811 68.0777C8.6225 61.5716 4.67672 52.8269 4.37828 43.1791ZM40.8209 79.6217C31.4886 79.3331 23.0016 75.6317 16.568 69.7255L21.1017 65.1919C26.3683 69.9422 33.2548 72.927 40.8211 73.2094V79.6217H40.8209ZM43.1792 79.6217V73.2102H43.1791C46.8145 73.0761 50.353 72.3234 53.7133 70.9631L52.8284 68.7773C49.3883 70.1698 45.7452 70.8759 42.0002 70.8759C26.0778 70.8759 13.1242 57.9222 13.1242 42C13.1242 26.0778 26.0777 13.1241 42 13.1241C57.9222 13.1241 70.8759 26.0778 70.8759 42C70.8759 52.4902 65.1717 62.1722 55.9895 67.2672L57.1334 69.3291C59.3673 68.0895 61.4102 66.5981 63.2359 64.9033L67.7562 69.4236C61.285 75.505 52.6694 79.3281 43.1792 79.6217ZM69.4236 67.7562L64.9028 63.2355C69.9166 57.8216 72.9261 50.728 73.2109 43.1791H79.6217C79.3281 52.6694 75.505 61.2852 69.4236 67.7562Z" fill="#CF68FF"/>
<path d="M43.2531 17.0273H40.7485V19.3853H43.2531V17.0273Z" fill="#CF68FF"/>
<path d="M43.2531 64.6143H40.7485V66.9722H43.2531V64.6143Z" fill="#CF68FF"/>
<path d="M19.4593 40.8203H16.9546V43.1783H19.4593V40.8203Z" fill="#CF68FF"/>
<path d="M25.7204 23.29H23.2158V25.648H25.7204V23.29Z" fill="#CF68FF"/>
<path d="M62.0372 24.541H59.5327V26.899H62.0372V24.541Z" fill="#CF68FF"/>
<path d="M62.0372 57.1006H59.5327V59.4585H62.0372V57.1006Z" fill="#CF68FF"/>
<path d="M24.4676 57.1006H21.9629V59.4585H24.4676V57.1006Z" fill="#CF68FF"/>
<path d="M67.0452 40.8203H64.5405V43.1783H67.0452V40.8203Z" fill="#CF68FF"/>
<path d="M29.2554 42.0003L41.9997 58.9928L54.7441 42.0003L41.9997 25.0078L29.2554 42.0003ZM41.9997 55.0628L32.203 42.0003L41.9997 28.9378L51.7965 42.0003L41.9997 55.0628Z" fill="#CF68FF"/>
</g>
<defs>
<filter id="filter0_d" x="0" y="0" width="84" height="84" filterUnits="userSpaceOnUse" color-interpolation-filters="sRGB">
<feFlood flood-opacity="0" result="BackgroundImageFix"/>
<feColorMatrix in="SourceAlpha" type="matrix" values="0 0 0 0 0 0 0 0 0 0 0 0 0 0 0 0 0 0 127 0" result="hardAlpha"/>
<feOffset/>
<feGaussianBlur stdDeviation="1"/>
<feColorMatrix type="matrix" values="0 0 0 0 0.691667 0 0 0 0 0.295833 0 0 0 0 1 0 0 0 1 0"/>
<feBlend mode="normal" in2="BackgroundImageFix" result="effect1_dropShadow"/>
<feBlend mode="normal" in="SourceGraphic" in2="effect1_dropShadow" result="shape"/>
</filter>
</defs>
</svg>
