<svg xmlns="http://www.w3.org/2000/svg" width="80" height="80" viewBox="0 0 80 80" fill="none">
<g filter="url(#filter0_d)">
<path d="M51.6113 23.1886L51.6113 23.1886C51.4603 22.9293 51.4185 22.6206 51.495 22.3304C51.5716 22.0402 51.7603 21.7923 52.0196 21.6413C52.279 21.4903 52.5877 21.4484 52.8778 21.525C53.1679 21.6016 53.4157 21.7902 53.5668 22.0494C55.8107 25.8155 57.3936 29.9374 58.2475 34.2368C60.4531 30.8204 61.1185 24.5053 58.4634 18.0679C58.349 17.7904 58.3495 17.4788 58.4648 17.2017C58.58 16.9246 58.8007 16.7046 59.0782 16.5902C59.3556 16.4757 59.6672 16.4762 59.9443 16.5915C60.2215 16.7068 60.4415 16.9274 60.5559 17.2049L60.5559 17.2049C62.1855 21.1584 62.736 25.3848 62.302 29.072C61.8681 32.7581 60.4493 35.9118 58.1328 37.711L51.6113 23.1886ZM51.6113 23.1886L51.6119 23.1895M51.6113 23.1886L51.6119 23.1895M51.6119 23.1895C54.1592 27.3613 55.7623 32.0402 56.3085 36.8977C56.3286 37.1835 56.4563 37.4511 56.6661 37.6464C56.8761 37.8419 57.1526 37.9503 57.4395 37.9496M51.6119 23.1895L57.4395 37.9496M57.4395 37.9496C57.6907 37.9493 57.9346 37.8653 58.1328 37.711L57.4395 37.9496Z" fill="#CF68FF"/>
<path d="M51.6113 23.1886L51.6113 23.1886C51.4603 22.9293 51.4185 22.6206 51.495 22.3304C51.5716 22.0402 51.7603 21.7923 52.0196 21.6413C52.279 21.4903 52.5877 21.4484 52.8778 21.525C53.1679 21.6016 53.4157 21.7902 53.5668 22.0494C55.8107 25.8155 57.3936 29.9374 58.2475 34.2368C60.4531 30.8204 61.1185 24.5053 58.4634 18.0679C58.349 17.7904 58.3495 17.4788 58.4648 17.2017C58.58 16.9246 58.8007 16.7046 59.0782 16.5902C59.3556 16.4757 59.6672 16.4762 59.9443 16.5915C60.2215 16.7068 60.4415 16.9274 60.5559 17.2049L60.5559 17.2049C62.1855 21.1584 62.736 25.3848 62.302 29.072C61.8681 32.7581 60.4493 35.9118 58.1328 37.711L51.6113 23.1886ZM51.6113 23.1886L51.6119 23.1895M51.6113 23.1886L51.6119 23.1895M51.6119 23.1895C54.1592 27.3613 55.7623 32.0402 56.3085 36.8977C56.3286 37.1835 56.4563 37.4511 56.6661 37.6464C56.8761 37.8419 57.1526 37.9503 57.4395 37.9496M51.6119 23.1895L57.4395 37.9496M57.4395 37.9496C57.6907 37.9493 57.9346 37.8653 58.1328 37.711L57.4395 37.9496Z" fill="#CF68FF"/>
<path d="M51.6113 23.1886L51.6113 23.1886C51.4603 22.9293 51.4185 22.6206 51.495 22.3304C51.5716 22.0402 51.7603 21.7923 52.0196 21.6413C52.279 21.4903 52.5877 21.4484 52.8778 21.525C53.1679 21.6016 53.4157 21.7902 53.5668 22.0494C55.8107 25.8155 57.3936 29.9374 58.2475 34.2368C60.4531 30.8204 61.1185 24.5053 58.4634 18.0679C58.349 17.7904 58.3495 17.4788 58.4648 17.2017C58.58 16.9246 58.8007 16.7046 59.0782 16.5902C59.3556 16.4757 59.6672 16.4762 59.9443 16.5915C60.2215 16.7068 60.4415 16.9274 60.5559 17.2049L60.5559 17.2049C62.1855 21.1584 62.736 25.3848 62.302 29.072C61.8681 32.7581 60.4493 35.9118 58.1328 37.711L51.6113 23.1886ZM51.6113 23.1886L51.6119 23.1895M51.6113 23.1886L51.6119 23.1895M51.6119 23.1895C54.1592 27.3613 55.7623 32.0402 56.3085 36.8977C56.3286 37.1835 56.4563 37.4511 56.6661 37.6464C56.8761 37.8419 57.1526 37.9503 57.4395 37.9496M51.6119 23.1895L57.4395 37.9496M57.4395 37.9496C57.6907 37.9493 57.9346 37.8653 58.1328 37.711L57.4395 37.9496Z" stroke="#CF68FF" stroke-width="0.1"/>
<path d="M35.6235 4.87304C39.6903 3.55957 46.3426 4.76451 51.87 9.23346C51.9848 9.33113 52.1179 9.40487 52.2616 9.45036C52.4055 9.49592 52.557 9.51222 52.7073 9.49831C52.8576 9.4844 53.0036 9.44054 53.1366 9.36934C53.2697 9.29814 53.3872 9.20103 53.4822 9.08372C53.5771 8.96641 53.6476 8.83129 53.6896 8.68631C53.7315 8.54132 53.744 8.38942 53.7263 8.23953C53.7086 8.08964 53.6611 7.94481 53.5866 7.81357C53.5122 7.68251 53.4124 7.56764 53.2929 7.47572C49.8809 4.71594 45.815 2.95672 42.0037 2.34412C38.1934 1.73169 34.6303 2.26438 32.2316 4.09904L32.2316 4.09905C32.0689 4.22358 31.943 4.38999 31.8675 4.5805C31.792 4.771 31.7696 4.97844 31.8029 5.18066C31.8361 5.38287 31.9236 5.57227 32.0561 5.7286C32.1883 5.88465 32.3604 6.00191 32.554 6.0679C37.3073 7.92018 41.5813 10.8211 45.0578 14.5545L45.0578 14.5545L45.0587 14.5554C45.1644 14.6632 45.2906 14.7488 45.4299 14.8071C45.5537 14.8589 45.6857 14.8882 45.8195 14.8937V14.8979L45.8694 14.8979C46.0924 14.8984 46.3104 14.8329 46.4963 14.7098C46.6821 14.5866 46.8274 14.4113 46.9139 14.2059C47.0005 14.0005 47.0243 13.774 46.9826 13.555C46.9409 13.3362 46.8354 13.1345 46.6795 12.9754C43.5029 9.64084 39.7593 6.89752 35.6235 4.87304Z" fill="#CF68FF"/>
<path d="M35.6235 4.87304C39.6903 3.55957 46.3426 4.76451 51.87 9.23346C51.9848 9.33113 52.1179 9.40487 52.2616 9.45036C52.4055 9.49592 52.557 9.51222 52.7073 9.49831C52.8576 9.4844 53.0036 9.44054 53.1366 9.36934C53.2697 9.29814 53.3872 9.20103 53.4822 9.08372C53.5771 8.96641 53.6476 8.83129 53.6896 8.68631C53.7315 8.54132 53.744 8.38942 53.7263 8.23953C53.7086 8.08964 53.6611 7.94481 53.5866 7.81357C53.5122 7.68251 53.4124 7.56764 53.2929 7.47572C49.8809 4.71594 45.815 2.95672 42.0037 2.34412C38.1934 1.73169 34.6303 2.26438 32.2316 4.09904L32.2316 4.09905C32.0689 4.22358 31.943 4.38999 31.8675 4.5805C31.792 4.771 31.7696 4.97844 31.8029 5.18066C31.8361 5.38287 31.9236 5.57227 32.0561 5.7286C32.1883 5.88465 32.3604 6.00191 32.554 6.0679C37.3073 7.92018 41.5813 10.8211 45.0578 14.5545L45.0578 14.5545L45.0587 14.5554C45.1644 14.6632 45.2906 14.7488 45.4299 14.8071C45.5537 14.8589 45.6857 14.8882 45.8195 14.8937V14.8979L45.8694 14.8979C46.0924 14.8984 46.3104 14.8329 46.4963 14.7098C46.6821 14.5866 46.8274 14.4113 46.9139 14.2059C47.0005 14.0005 47.0243 13.774 46.9826 13.555C46.9409 13.3362 46.8354 13.1345 46.6795 12.9754C43.5029 9.64084 39.7593 6.89752 35.6235 4.87304Z" fill="#CF68FF"/>
<path d="M35.6235 4.87304C39.6903 3.55957 46.3426 4.76451 51.87 9.23346C51.9848 9.33113 52.1179 9.40487 52.2616 9.45036C52.4055 9.49592 52.557 9.51222 52.7073 9.49831C52.8576 9.4844 53.0036 9.44054 53.1366 9.36934C53.2697 9.29814 53.3872 9.20103 53.4822 9.08372C53.5771 8.96641 53.6476 8.83129 53.6896 8.68631C53.7315 8.54132 53.744 8.38942 53.7263 8.23953C53.7086 8.08964 53.6611 7.94481 53.5866 7.81357C53.5122 7.68251 53.4124 7.56764 53.2929 7.47572C49.8809 4.71594 45.815 2.95672 42.0037 2.34412C38.1934 1.73169 34.6303 2.26438 32.2316 4.09904L32.2316 4.09905C32.0689 4.22358 31.943 4.38999 31.8675 4.5805C31.792 4.771 31.7696 4.97844 31.8029 5.18066C31.8361 5.38287 31.9236 5.57227 32.0561 5.7286C32.1883 5.88465 32.3604 6.00191 32.554 6.0679C37.3073 7.92018 41.5813 10.8211 45.0578 14.5545L45.0578 14.5545L45.0587 14.5554C45.1644 14.6632 45.2906 14.7488 45.4299 14.8071C45.5537 14.8589 45.6857 14.8882 45.8195 14.8937V14.8979L45.8694 14.8979C46.0924 14.8984 46.3104 14.8329 46.4963 14.7098C46.6821 14.5866 46.8274 14.4113 46.9139 14.2059C47.0005 14.0005 47.0243 13.774 46.9826 13.555C46.9409 13.3362 46.8354 13.1345 46.6795 12.9754C43.5029 9.64084 39.7593 6.89752 35.6235 4.87304Z" stroke="#CF68FF" stroke-width="0.1"/>
<path d="M49.6914 22.4375L49.6518 22.468L45.2345 16.7383L45.2344 16.7382C44.6931 16.0334 44.4534 15.1427 44.5678 14.2614C44.6822 13.3801 45.1413 12.5801 45.8446 12.0368L45.8446 12.0368L51.4436 7.72218L51.4436 7.72214C52.1483 7.18073 53.0389 6.94081 53.9202 7.05498C54.8015 7.16916 55.6015 7.6281 56.145 8.33121L56.145 8.33127L60.5611 14.0608C60.5612 14.0609 60.5612 14.0609 60.5612 14.061C60.8316 14.4089 61.0304 14.807 61.1462 15.2321C61.2621 15.6573 61.2926 16.1013 61.2361 16.5383C61.1796 16.9754 61.0371 17.3969 60.8169 17.7787C60.5967 18.1604 60.3032 18.4947 59.9532 18.7625L49.6914 22.4375ZM49.6914 22.4375L49.6518 22.468C49.9654 22.8747 50.3683 23.2038 50.8294 23.4299C51.2905 23.656 51.7973 23.7729 52.3109 23.7718M49.6914 22.4375L52.3109 23.7718M53.4893 9.2853L53.4891 9.2853C53.2488 9.28482 53.0151 9.36405 52.8246 9.51059L53.4893 9.2853ZM53.4893 9.2853C53.6562 9.28517 53.821 9.32341 53.9708 9.39707C54.1206 9.47073 54.2515 9.57784 54.3534 9.71013L54.3534 9.71015L58.7696 15.4399L58.7698 15.4402C58.8582 15.5531 58.9233 15.6824 58.9612 15.8207C58.9992 15.959 59.0093 16.1034 58.9909 16.2456C58.9725 16.3878 58.9261 16.525 58.8543 16.6491C58.7824 16.7732 58.6866 16.8817 58.5725 16.9685L58.5722 16.9687L52.9722 21.2833L52.9719 21.2836C52.859 21.3721 52.7296 21.4374 52.5913 21.4754C52.453 21.5134 52.3084 21.5235 52.1662 21.505C52.0239 21.4865 51.8867 21.4399 51.7627 21.3678C51.6386 21.2957 51.5302 21.1996 51.4437 21.0852L51.4434 21.0848L47.0262 15.3551C46.8501 15.1258 46.7721 14.8359 46.8093 14.5491C46.8465 14.2623 46.9958 14.002 47.2247 13.8251L52.8246 9.51061L53.4893 9.2853ZM52.3109 23.7718C53.0498 23.773 53.7682 23.5286 54.3532 23.0771L52.3109 23.7718ZM52.3109 23.7718C52.3108 23.7718 52.3108 23.7718 52.3108 23.7718L52.3108 23.7218L52.3109 23.7718ZM54.3533 23.0771L59.9531 18.7626L54.3533 23.0771Z" fill="#CF68FF"/>
<path d="M49.6914 22.4375L49.6518 22.468L45.2345 16.7383L45.2344 16.7382C44.6931 16.0334 44.4534 15.1427 44.5678 14.2614C44.6822 13.3801 45.1413 12.5801 45.8446 12.0368L45.8446 12.0368L51.4436 7.72218L51.4436 7.72214C52.1483 7.18073 53.0389 6.94081 53.9202 7.05498C54.8015 7.16916 55.6015 7.6281 56.145 8.33121L56.145 8.33127L60.5611 14.0608C60.5612 14.0609 60.5612 14.0609 60.5612 14.061C60.8316 14.4089 61.0304 14.807 61.1462 15.2321C61.2621 15.6573 61.2926 16.1013 61.2361 16.5383C61.1796 16.9754 61.0371 17.3969 60.8169 17.7787C60.5967 18.1604 60.3032 18.4947 59.9532 18.7625L49.6914 22.4375ZM49.6914 22.4375L49.6518 22.468C49.9654 22.8747 50.3683 23.2038 50.8294 23.4299C51.2905 23.656 51.7973 23.7729 52.3109 23.7718M49.6914 22.4375L52.3109 23.7718M53.4893 9.2853L53.4891 9.2853C53.2488 9.28482 53.0151 9.36405 52.8246 9.51059L53.4893 9.2853ZM53.4893 9.2853C53.6562 9.28517 53.821 9.32341 53.9708 9.39707C54.1206 9.47073 54.2515 9.57784 54.3534 9.71013L54.3534 9.71015L58.7696 15.4399L58.7698 15.4402C58.8582 15.5531 58.9233 15.6824 58.9612 15.8207C58.9992 15.959 59.0093 16.1034 58.9909 16.2456C58.9725 16.3878 58.9261 16.525 58.8543 16.6491C58.7824 16.7732 58.6866 16.8817 58.5725 16.9685L58.5722 16.9687L52.9722 21.2833L52.9719 21.2836C52.859 21.3721 52.7296 21.4374 52.5913 21.4754C52.453 21.5134 52.3084 21.5235 52.1662 21.505C52.0239 21.4865 51.8867 21.4399 51.7627 21.3678C51.6386 21.2957 51.5302 21.1996 51.4437 21.0852L51.4434 21.0848L47.0262 15.3551C46.8501 15.1258 46.7721 14.8359 46.8093 14.5491C46.8465 14.2623 46.9958 14.002 47.2247 13.8251L52.8246 9.51061L53.4893 9.2853ZM52.3109 23.7718C53.0498 23.773 53.7682 23.5286 54.3532 23.0771L52.3109 23.7718ZM52.3109 23.7718C52.3108 23.7718 52.3108 23.7718 52.3108 23.7718L52.3108 23.7218L52.3109 23.7718ZM54.3533 23.0771L59.9531 18.7626L54.3533 23.0771Z" fill="#CF68FF"/>
<path d="M49.6914 22.4375L49.6518 22.468L45.2345 16.7383L45.2344 16.7382C44.6931 16.0334 44.4534 15.1427 44.5678 14.2614C44.6822 13.3801 45.1413 12.5801 45.8446 12.0368L45.8446 12.0368L51.4436 7.72218L51.4436 7.72214C52.1483 7.18073 53.0389 6.94081 53.9202 7.05498C54.8015 7.16916 55.6015 7.6281 56.145 8.33121L56.145 8.33127L60.5611 14.0608C60.5612 14.0609 60.5612 14.0609 60.5612 14.061C60.8316 14.4089 61.0304 14.807 61.1462 15.2321C61.2621 15.6573 61.2926 16.1013 61.2361 16.5383C61.1796 16.9754 61.0371 17.3969 60.8169 17.7787C60.5967 18.1604 60.3032 18.4947 59.9532 18.7625L49.6914 22.4375ZM49.6914 22.4375L49.6518 22.468C49.9654 22.8747 50.3683 23.2038 50.8294 23.4299C51.2905 23.656 51.7973 23.7729 52.3109 23.7718M49.6914 22.4375L52.3109 23.7718M53.4893 9.2853L53.4891 9.2853C53.2488 9.28482 53.0151 9.36405 52.8246 9.51059L53.4893 9.2853ZM53.4893 9.2853C53.6562 9.28517 53.821 9.32341 53.9708 9.39707C54.1206 9.47073 54.2515 9.57784 54.3534 9.71013L54.3534 9.71015L58.7696 15.4399L58.7698 15.4402C58.8582 15.5531 58.9233 15.6824 58.9612 15.8207C58.9992 15.959 59.0093 16.1034 58.9909 16.2456C58.9725 16.3878 58.9261 16.525 58.8543 16.6491C58.7824 16.7732 58.6866 16.8817 58.5725 16.9685L58.5722 16.9687L52.9722 21.2833L52.9719 21.2836C52.859 21.3721 52.7296 21.4374 52.5913 21.4754C52.453 21.5134 52.3084 21.5235 52.1662 21.505C52.0239 21.4865 51.8867 21.4399 51.7627 21.3678C51.6386 21.2957 51.5302 21.1996 51.4437 21.0852L51.4434 21.0848L47.0262 15.3551C46.8501 15.1258 46.7721 14.8359 46.8093 14.5491C46.8465 14.2623 46.9958 14.002 47.2247 13.8251L52.8246 9.51061L53.4893 9.2853ZM52.3109 23.7718C53.0498 23.773 53.7682 23.5286 54.3532 23.0771L52.3109 23.7718ZM52.3109 23.7718C52.3108 23.7718 52.3108 23.7718 52.3108 23.7718L52.3108 23.7218L52.3109 23.7718ZM54.3533 23.0771L59.9531 18.7626L54.3533 23.0771Z" stroke="#CF68FF" stroke-width="0.1"/>
<path d="M6.35986 53.4729L6.35975 53.4727L4.22686 50.6998C3.99862 50.4047 3.8309 50.0674 3.73329 49.7073C3.63569 49.3472 3.61013 48.9714 3.65808 48.6013C3.70603 48.2313 3.82655 47.8744 4.01272 47.5511C4.19888 47.2278 4.44702 46.9444 4.74292 46.7172L6.35986 53.4729ZM6.35986 53.4729C6.62605 53.8165 6.96758 54.0944 7.35813 54.2852C7.74866 54.476 8.17776 54.5745 8.61239 54.5733M6.35986 53.4729L8.61239 54.5733M8.61239 54.5733C9.23803 54.5742 9.84621 54.3671 10.3413 53.9845L8.61239 54.5733ZM8.61239 54.5733C8.61236 54.5733 8.61232 54.5733 8.61228 54.5733L8.61236 54.5233L8.61239 54.5733ZM45.5418 15.2805L4.74299 46.7172L47.1287 15.4863C46.9459 15.2486 46.6762 15.0932 46.3789 15.0543V15.0543L46.3784 15.0542C46.0809 15.0178 45.7808 15.0989 45.5421 15.2802L45.5418 15.2805ZM51.3449 20.9598L47.1288 15.4863L10.3413 53.9845L51.1391 22.5435L51.1392 22.5434C51.376 22.3604 51.5307 22.091 51.5692 21.7942C51.6078 21.4974 51.5272 21.1974 51.345 20.9599L51.3449 20.9598ZM6.12356 48.5092L6.12396 48.5089L46.0271 17.7621L48.8644 21.445L8.9559 52.1864L8.95562 52.1866C8.896 52.2332 8.82778 52.2676 8.75487 52.2878C8.68195 52.308 8.60576 52.3137 8.53066 52.3045C8.45555 52.2952 8.383 52.2713 8.31716 52.234C8.25133 52.1967 8.19348 52.1468 8.14693 52.0872C8.14693 52.0872 8.14692 52.0872 8.14691 52.0871L6.01848 49.3188L6.01818 49.3184C5.97127 49.2586 5.93674 49.1901 5.91663 49.1168C5.89651 49.0436 5.8912 48.967 5.90101 48.8917C5.91082 48.8163 5.93556 48.7437 5.97377 48.678C6.01198 48.6123 6.0629 48.5549 6.12356 48.5092Z" fill="#CF68FF"/>
<path d="M6.35986 53.4729L6.35975 53.4727L4.22686 50.6998C3.99862 50.4047 3.8309 50.0674 3.73329 49.7073C3.63569 49.3472 3.61013 48.9714 3.65808 48.6013C3.70603 48.2313 3.82655 47.8744 4.01272 47.5511C4.19888 47.2278 4.44702 46.9444 4.74292 46.7172L6.35986 53.4729ZM6.35986 53.4729C6.62605 53.8165 6.96758 54.0944 7.35813 54.2852C7.74866 54.476 8.17776 54.5745 8.61239 54.5733M6.35986 53.4729L8.61239 54.5733M8.61239 54.5733C9.23803 54.5742 9.84621 54.3671 10.3413 53.9845L8.61239 54.5733ZM8.61239 54.5733C8.61236 54.5733 8.61232 54.5733 8.61228 54.5733L8.61236 54.5233L8.61239 54.5733ZM45.5418 15.2805L4.74299 46.7172L47.1287 15.4863C46.9459 15.2486 46.6762 15.0932 46.3789 15.0543V15.0543L46.3784 15.0542C46.0809 15.0178 45.7808 15.0989 45.5421 15.2802L45.5418 15.2805ZM51.3449 20.9598L47.1288 15.4863L10.3413 53.9845L51.1391 22.5435L51.1392 22.5434C51.376 22.3604 51.5307 22.091 51.5692 21.7942C51.6078 21.4974 51.5272 21.1974 51.345 20.9599L51.3449 20.9598ZM6.12356 48.5092L6.12396 48.5089L46.0271 17.7621L48.8644 21.445L8.9559 52.1864L8.95562 52.1866C8.896 52.2332 8.82778 52.2676 8.75487 52.2878C8.68195 52.308 8.60576 52.3137 8.53066 52.3045C8.45555 52.2952 8.383 52.2713 8.31716 52.234C8.25133 52.1967 8.19348 52.1468 8.14693 52.0872C8.14693 52.0872 8.14692 52.0872 8.14691 52.0871L6.01848 49.3188L6.01818 49.3184C5.97127 49.2586 5.93674 49.1901 5.91663 49.1168C5.89651 49.0436 5.8912 48.967 5.90101 48.8917C5.91082 48.8163 5.93556 48.7437 5.97377 48.678C6.01198 48.6123 6.0629 48.5549 6.12356 48.5092Z" fill="#CF68FF"/>
<path d="M6.35986 53.4729L6.35975 53.4727L4.22686 50.6998C3.99862 50.4047 3.8309 50.0674 3.73329 49.7073C3.63569 49.3472 3.61013 48.9714 3.65808 48.6013C3.70603 48.2313 3.82655 47.8744 4.01272 47.5511C4.19888 47.2278 4.44702 46.9444 4.74292 46.7172L6.35986 53.4729ZM6.35986 53.4729C6.62605 53.8165 6.96758 54.0944 7.35813 54.2852C7.74866 54.476 8.17776 54.5745 8.61239 54.5733M6.35986 53.4729L8.61239 54.5733M8.61239 54.5733C9.23803 54.5742 9.84621 54.3671 10.3413 53.9845L8.61239 54.5733ZM8.61239 54.5733C8.61236 54.5733 8.61232 54.5733 8.61228 54.5733L8.61236 54.5233L8.61239 54.5733ZM45.5418 15.2805L4.74299 46.7172L47.1287 15.4863C46.9459 15.2486 46.6762 15.0932 46.3789 15.0543V15.0543L46.3784 15.0542C46.0809 15.0178 45.7808 15.0989 45.5421 15.2802L45.5418 15.2805ZM51.3449 20.9598L47.1288 15.4863L10.3413 53.9845L51.1391 22.5435L51.1392 22.5434C51.376 22.3604 51.5307 22.091 51.5692 21.7942C51.6078 21.4974 51.5272 21.1974 51.345 20.9599L51.3449 20.9598ZM6.12356 48.5092L6.12396 48.5089L46.0271 17.7621L48.8644 21.445L8.9559 52.1864L8.95562 52.1866C8.896 52.2332 8.82778 52.2676 8.75487 52.2878C8.68195 52.308 8.60576 52.3137 8.53066 52.3045C8.45555 52.2952 8.383 52.2713 8.31716 52.234C8.25133 52.1967 8.19348 52.1468 8.14693 52.0872C8.14693 52.0872 8.14692 52.0872 8.14691 52.0871L6.01848 49.3188L6.01818 49.3184C5.97127 49.2586 5.93674 49.1901 5.91663 49.1168C5.89651 49.0436 5.8912 48.967 5.90101 48.8917C5.91082 48.8163 5.93556 48.7437 5.97377 48.678C6.01198 48.6123 6.0629 48.5549 6.12356 48.5092Z" stroke="#CF68FF" stroke-width="0.1"/>
<path d="M59.5674 15.7545C59.8178 15.7549 60.0612 15.6722 60.2595 15.5193C60.2595 15.5193 60.2595 15.5193 60.2595 15.5193L61.7135 14.4026L61.7136 14.4025C62.3093 13.9424 62.6981 13.2648 62.7947 12.5183C62.8912 11.7719 62.6877 11.0176 62.2287 10.4211L62.2286 10.4211L60.0957 7.65134L60.0956 7.65126C59.6352 7.05609 58.9576 6.66769 58.2113 6.57116C57.465 6.47463 56.7109 6.67783 56.1142 7.13625L56.1142 7.13629L54.6601 8.25629L54.66 8.25634C54.4232 8.43934 54.2685 8.70875 54.23 9.00556C54.1914 9.30237 54.272 9.60238 54.4542 9.83985L54.4542 9.83992L58.6705 15.3145L58.6705 15.3146C58.7763 15.4517 58.9123 15.5627 59.0678 15.6389C59.2233 15.7152 59.3942 15.7548 59.5674 15.7545ZM59.5674 15.7545C59.5674 15.7545 59.5673 15.7545 59.5673 15.7545L59.5674 15.7045L59.5675 15.7545C59.5674 15.7545 59.5674 15.7545 59.5674 15.7545ZM59.7711 13.0377L56.935 9.35503L57.4949 8.93033L57.4949 8.93034L57.4953 8.93006C57.6162 8.83661 57.7691 8.79465 57.9208 8.81329C58.0724 8.83191 58.2105 8.90953 58.3052 9.02932C58.3053 9.02941 58.3054 9.0295 58.3054 9.02959L60.4292 11.7975C60.4292 11.7975 60.4293 11.7976 60.4293 11.7976C60.5215 11.9191 60.5627 12.0717 60.5441 12.2231C60.5255 12.3744 60.4487 12.5124 60.33 12.6079L59.7711 13.0377Z" fill="#CF68FF"/>
<path d="M59.5674 15.7545C59.8178 15.7549 60.0612 15.6722 60.2595 15.5193C60.2595 15.5193 60.2595 15.5193 60.2595 15.5193L61.7135 14.4026L61.7136 14.4025C62.3093 13.9424 62.6981 13.2648 62.7947 12.5183C62.8912 11.7719 62.6877 11.0176 62.2287 10.4211L62.2286 10.4211L60.0957 7.65134L60.0956 7.65126C59.6352 7.05609 58.9576 6.66769 58.2113 6.57116C57.465 6.47463 56.7109 6.67783 56.1142 7.13625L56.1142 7.13629L54.6601 8.25629L54.66 8.25634C54.4232 8.43934 54.2685 8.70875 54.23 9.00556C54.1914 9.30237 54.272 9.60238 54.4542 9.83985L54.4542 9.83992L58.6705 15.3145L58.6705 15.3146C58.7763 15.4517 58.9123 15.5627 59.0678 15.6389C59.2233 15.7152 59.3942 15.7548 59.5674 15.7545ZM59.5674 15.7545C59.5674 15.7545 59.5673 15.7545 59.5673 15.7545L59.5674 15.7045L59.5675 15.7545C59.5674 15.7545 59.5674 15.7545 59.5674 15.7545ZM59.7711 13.0377L56.935 9.35503L57.4949 8.93033L57.4949 8.93034L57.4953 8.93006C57.6162 8.83661 57.7691 8.79465 57.9208 8.81329C58.0724 8.83191 58.2105 8.90953 58.3052 9.02932C58.3053 9.02941 58.3054 9.0295 58.3054 9.02959L60.4292 11.7975C60.4292 11.7975 60.4293 11.7976 60.4293 11.7976C60.5215 11.9191 60.5627 12.0717 60.5441 12.2231C60.5255 12.3744 60.4487 12.5124 60.33 12.6079L59.7711 13.0377Z" fill="#CF68FF"/>
<path d="M59.5674 15.7545C59.8178 15.7549 60.0612 15.6722 60.2595 15.5193C60.2595 15.5193 60.2595 15.5193 60.2595 15.5193L61.7135 14.4026L61.7136 14.4025C62.3093 13.9424 62.6981 13.2648 62.7947 12.5183C62.8912 11.7719 62.6877 11.0176 62.2287 10.4211L62.2286 10.4211L60.0957 7.65134L60.0956 7.65126C59.6352 7.05609 58.9576 6.66769 58.2113 6.57116C57.465 6.47463 56.7109 6.67783 56.1142 7.13625L56.1142 7.13629L54.6601 8.25629L54.66 8.25634C54.4232 8.43934 54.2685 8.70875 54.23 9.00556C54.1914 9.30237 54.272 9.60238 54.4542 9.83985L54.4542 9.83992L58.6705 15.3145L58.6705 15.3146C58.7763 15.4517 58.9123 15.5627 59.0678 15.6389C59.2233 15.7152 59.3942 15.7548 59.5674 15.7545ZM59.5674 15.7545C59.5674 15.7545 59.5673 15.7545 59.5673 15.7545L59.5674 15.7045L59.5675 15.7545C59.5674 15.7545 59.5674 15.7545 59.5674 15.7545ZM59.7711 13.0377L56.935 9.35503L57.4949 8.93033L57.4949 8.93034L57.4953 8.93006C57.6162 8.83661 57.7691 8.79465 57.9208 8.81329C58.0724 8.83191 58.2105 8.90953 58.3052 9.02932C58.3053 9.02941 58.3054 9.0295 58.3054 9.02959L60.4292 11.7975C60.4292 11.7975 60.4293 11.7976 60.4293 11.7976C60.5215 11.9191 60.5627 12.0717 60.5441 12.2231C60.5255 12.3744 60.4487 12.5124 60.33 12.6079L59.7711 13.0377Z" stroke="#CF68FF" stroke-width="0.1"/>
<path d="M19.7316 68.1975L19.7316 68.1975L28.7252 60.8915L28.7252 60.8915C28.8098 60.8229 28.9039 60.7669 29.0046 60.7252L47.3445 53.0962L50.0065 45.093L19.7316 68.1975ZM19.7316 68.1975C19.6012 68.3036 19.4961 68.4374 19.4239 68.5892C19.3517 68.7411 19.3142 68.9071 19.3143 69.0752V76.7574C19.3143 77.0573 19.4334 77.345 19.6455 77.5572C19.8577 77.7693 20.1454 77.8884 20.4453 77.8884H75.2343M19.7316 68.1975L74.7329 28.6741M74.7329 28.6741L74.7095 28.63C74.8818 28.5384 75.0749 28.4931 75.2699 28.4982C75.465 28.5034 75.6554 28.559 75.8227 28.6595C75.9899 28.76 76.1283 28.9021 76.2244 29.0719C76.3205 29.2418 76.371 29.4336 76.371 29.6287V76.7574C76.371 76.9064 76.3416 77.0539 76.2844 77.1915C76.2272 77.3291 76.1434 77.4541 76.0377 77.5592C75.9321 77.6643 75.8067 77.7475 75.6689 77.804C75.531 77.8605 75.3833 77.8892 75.2343 77.8884M74.7329 28.6741L74.7095 28.63L63.0522 34.8213C62.8967 34.9037 62.7626 35.0212 62.6604 35.1646C62.5583 35.3079 62.4911 35.4731 62.464 35.647L61.1139 44.3182H51.0799C50.8423 44.3182 50.6107 44.3931 50.418 44.5321C50.2254 44.6712 50.0814 44.8674 50.0065 45.0929L74.7329 28.6741ZM75.2343 77.8884L75.2345 77.8384V77.8884H75.2343ZM49.3295 54.2986L49.3295 54.2985L51.8912 46.5803H62.0778C62.3476 46.5803 62.6084 46.4839 62.8134 46.3084C63.0183 46.1329 63.1537 45.89 63.1953 45.6234L64.6077 36.5541L74.1035 31.5108V75.6263H21.5764V69.6136L30.0237 62.7467L48.6905 54.9873L48.6906 54.9872C48.84 54.9245 48.9742 54.8306 49.0844 54.7119C49.1946 54.5931 49.2781 54.4523 49.3295 54.2986Z" fill="#CF68FF"/>
<path d="M19.7316 68.1975L19.7316 68.1975L28.7252 60.8915L28.7252 60.8915C28.8098 60.8229 28.9039 60.7669 29.0046 60.7252L47.3445 53.0962L50.0065 45.093L19.7316 68.1975ZM19.7316 68.1975C19.6012 68.3036 19.4961 68.4374 19.4239 68.5892C19.3517 68.7411 19.3142 68.9071 19.3143 69.0752V76.7574C19.3143 77.0573 19.4334 77.345 19.6455 77.5572C19.8577 77.7693 20.1454 77.8884 20.4453 77.8884H75.2343M19.7316 68.1975L74.7329 28.6741M74.7329 28.6741L74.7095 28.63C74.8818 28.5384 75.0749 28.4931 75.2699 28.4982C75.465 28.5034 75.6554 28.559 75.8227 28.6595C75.9899 28.76 76.1283 28.9021 76.2244 29.0719C76.3205 29.2418 76.371 29.4336 76.371 29.6287V76.7574C76.371 76.9064 76.3416 77.0539 76.2844 77.1915C76.2272 77.3291 76.1434 77.4541 76.0377 77.5592C75.9321 77.6643 75.8067 77.7475 75.6689 77.804C75.531 77.8605 75.3833 77.8892 75.2343 77.8884M74.7329 28.6741L74.7095 28.63L63.0522 34.8213C62.8967 34.9037 62.7626 35.0212 62.6604 35.1646C62.5583 35.3079 62.4911 35.4731 62.464 35.647L61.1139 44.3182H51.0799C50.8423 44.3182 50.6107 44.3931 50.418 44.5321C50.2254 44.6712 50.0814 44.8674 50.0065 45.0929L74.7329 28.6741ZM75.2343 77.8884L75.2345 77.8384V77.8884H75.2343ZM49.3295 54.2986L49.3295 54.2985L51.8912 46.5803H62.0778C62.3476 46.5803 62.6084 46.4839 62.8134 46.3084C63.0183 46.1329 63.1537 45.89 63.1953 45.6234L64.6077 36.5541L74.1035 31.5108V75.6263H21.5764V69.6136L30.0237 62.7467L48.6905 54.9873L48.6906 54.9872C48.84 54.9245 48.9742 54.8306 49.0844 54.7119C49.1946 54.5931 49.2781 54.4523 49.3295 54.2986Z" fill="#CF68FF"/>
<path d="M19.7316 68.1975L19.7316 68.1975L28.7252 60.8915L28.7252 60.8915C28.8098 60.8229 28.9039 60.7669 29.0046 60.7252L47.3445 53.0962L50.0065 45.093L19.7316 68.1975ZM19.7316 68.1975C19.6012 68.3036 19.4961 68.4374 19.4239 68.5892C19.3517 68.7411 19.3142 68.9071 19.3143 69.0752V76.7574C19.3143 77.0573 19.4334 77.345 19.6455 77.5572C19.8577 77.7693 20.1454 77.8884 20.4453 77.8884H75.2343M19.7316 68.1975L74.7329 28.6741M74.7329 28.6741L74.7095 28.63C74.8818 28.5384 75.0749 28.4931 75.2699 28.4982C75.465 28.5034 75.6554 28.559 75.8227 28.6595C75.9899 28.76 76.1283 28.9021 76.2244 29.0719C76.3205 29.2418 76.371 29.4336 76.371 29.6287V76.7574C76.371 76.9064 76.3416 77.0539 76.2844 77.1915C76.2272 77.3291 76.1434 77.4541 76.0377 77.5592C75.9321 77.6643 75.8067 77.7475 75.6689 77.804C75.531 77.8605 75.3833 77.8892 75.2343 77.8884M74.7329 28.6741L74.7095 28.63L63.0522 34.8213C62.8967 34.9037 62.7626 35.0212 62.6604 35.1646C62.5583 35.3079 62.4911 35.4731 62.464 35.647L61.1139 44.3182H51.0799C50.8423 44.3182 50.6107 44.3931 50.418 44.5321C50.2254 44.6712 50.0814 44.8674 50.0065 45.0929L74.7329 28.6741ZM75.2343 77.8884L75.2345 77.8384V77.8884H75.2343ZM49.3295 54.2986L49.3295 54.2985L51.8912 46.5803H62.0778C62.3476 46.5803 62.6084 46.4839 62.8134 46.3084C63.0183 46.1329 63.1537 45.89 63.1953 45.6234L64.6077 36.5541L74.1035 31.5108V75.6263H21.5764V69.6136L30.0237 62.7467L48.6905 54.9873L48.6906 54.9872C48.84 54.9245 48.9742 54.8306 49.0844 54.7119C49.1946 54.5931 49.2781 54.4523 49.3295 54.2986Z" stroke="#CF68FF" stroke-width="0.1"/>
</g>
<defs>
<filter id="filter0_d" x="-2" y="-2" width="84" height="84" filterUnits="userSpaceOnUse" color-interpolation-filters="sRGB">
<feFlood flood-opacity="0" result="BackgroundImageFix"/>
<feColorMatrix in="SourceAlpha" type="matrix" values="0 0 0 0 0 0 0 0 0 0 0 0 0 0 0 0 0 0 127 0" result="hardAlpha"/>
<feOffset/>
<feGaussianBlur stdDeviation="1" />
<feColorMatrix type="matrix" values="0 0 0 0 0.691667 0 0 0 0 0.295833 0 0 0 0 1 0 0 0 1 0"/>
<feBlend mode="normal" in2="BackgroundImageFix" result="effect1_dropShadow"/>
<feBlend mode="normal" in="SourceGraphic" in2="effect1_dropShadow" result="shape"/>
</filter>
</defs>
</svg>
