<svg xmlns="http://www.w3.org/2000/svg" width="32" height="32" viewBox="0 0 32 32" fill="none">
<g clip-path="url(#clip0)">
<path d="M4.77325 28.2613H23.7853L22.8773 25.3213L25.0493 27.1853L27.0399 28.9693L30.6666 32V3.3C30.5759 1.516 29.0399 0 27.1359 0L4.77992 0.004C2.87725 0.004 1.33325 1.52267 1.33325 3.30667V24.96C1.33325 26.8413 2.87459 28.2613 4.77325 28.2613ZM18.8373 7.57733L18.7933 7.59333L18.8093 7.57733H18.8373ZM8.66259 9.26933C11.1066 7.49067 13.3719 7.576 13.3719 7.576L13.5546 7.756C10.5639 8.46933 9.20792 9.80533 9.20792 9.80533C9.20792 9.80533 9.57059 9.628 10.2039 9.35733C14.2319 7.77333 18.6306 7.888 22.7026 9.89333C22.7026 9.89333 21.3439 8.644 18.5373 7.844L18.7853 7.6C19.1733 7.60133 21.2266 7.67333 23.4239 9.28C23.4239 9.28 25.8826 13.48 25.8826 18.64C25.8013 18.5413 24.3573 20.8613 20.6413 20.9413C20.6413 20.9413 20.0119 20.2293 19.5639 19.608C21.7373 18.984 22.5506 17.736 22.5506 17.736C21.8373 18.1853 21.1866 18.452 20.6586 18.7187C19.8466 19.076 19.0333 19.252 18.2213 19.432C14.3759 20.056 12.2173 19.012 10.1773 18.184L9.47992 17.8293C9.47992 17.8293 10.2919 19.0773 12.3786 19.7013C11.8306 20.3267 11.2879 21.0373 11.2879 21.0373C7.57325 20.9493 6.21859 18.6293 6.21859 18.6293C6.21859 13.4613 8.66259 9.26933 8.66259 9.26933Z" fill="white"/>
<path d="M19.0774 17.0276C20.0254 17.0276 20.7974 16.2276 20.7974 15.2409C20.7974 14.2609 20.0294 13.4609 19.0774 13.4609V13.4649C18.1334 13.4649 17.3601 14.2623 17.3574 15.2489C17.3574 16.2276 18.1294 17.0276 19.0774 17.0276Z" fill="white"/>
<path d="M12.9199 17.0276C13.8679 17.0276 14.6399 16.2276 14.6399 15.2409C14.6399 14.2609 13.8733 13.4609 12.9253 13.4609L12.9199 13.4649C11.9719 13.4649 11.2 14.2623 11.2 15.2489C11.2 16.2276 11.9719 17.0276 12.9199 17.0276Z" fill="white"/>
</g>
<defs>
<clipPath id="clip0">
<rect width="32" height="32" fill="white"/>
</clipPath>
</defs>
</svg>
