<svg xmlns="http://www.w3.org/2000/svg" width="81" height="80" viewBox="0 0 81 80" fill="none">
<path d="M68.7842 11.7158C61.2292 4.16078 51.1844 0 40.5 0C35.1328 0 29.9231 1.04563 25.0156 3.10766L25.9291 5.28156C30.1858 3.49297 34.6855 2.51938 39.3209 2.37812V8.79047C31.597 9.07859 24.5822 12.1841 19.2755 17.1078L14.7328 12.5655C16.9047 10.5208 19.3352 8.7175 21.9934 7.21391L20.8322 5.16156C14.7706 8.59062 9.68141 13.5666 6.115 19.5514C2.44172 25.7153 0.5 32.7864 0.5 40C0.5 50.6844 4.66078 60.7294 12.2158 68.2842C19.7708 75.8391 29.8155 80 40.5 80C51.1844 80 61.2292 75.8392 68.7842 68.2842C76.3394 60.7292 80.5 50.6844 80.5 40C80.5 29.3156 76.3394 19.2708 68.7842 11.7158ZM78.1219 38.8209H71.7095C71.4272 31.2547 68.4423 24.3681 63.692 19.1016L68.2258 14.5678C74.1317 21.0016 77.8331 29.4886 78.1219 38.8209ZM41.6791 2.37828C51.327 2.67687 60.0716 6.6225 66.5777 12.8811L62.0486 17.4102C56.705 12.3105 49.5605 9.08469 41.6791 8.79047V2.37828ZM13.0672 14.2344L17.6081 18.7753C12.6842 24.0822 9.57875 31.097 9.29062 38.8209H2.87719C3.16812 29.567 6.87313 20.8438 13.0672 14.2344ZM2.87828 41.1791H9.29031C9.58438 49.0605 12.8103 56.2052 17.91 61.5487L13.3811 66.0777C7.1225 59.5716 3.17672 50.8269 2.87828 41.1791ZM39.3209 77.6217C29.9886 77.3331 21.5016 73.6317 15.068 67.7255L19.6017 63.1919C24.8683 67.9422 31.7548 70.927 39.3211 71.2094V77.6217H39.3209ZM41.6792 77.6217V71.2102H41.6791C45.3145 71.0761 48.853 70.3234 52.2133 68.9631L51.3284 66.7773C47.8883 68.1698 44.2452 68.8759 40.5002 68.8759C24.5778 68.8759 11.6242 55.9222 11.6242 40C11.6242 24.0778 24.5777 11.1241 40.5 11.1241C56.4222 11.1241 69.3759 24.0778 69.3759 40C69.3759 50.4902 63.6717 60.1722 54.4895 65.2672L55.6334 67.3291C57.8673 66.0895 59.9102 64.5981 61.7359 62.9033L66.2562 67.4236C59.785 73.505 51.1694 77.3281 41.6792 77.6217ZM67.9236 65.7562L63.4028 61.2355C68.4166 55.8216 71.4261 48.728 71.7109 41.1791H78.1217C77.8281 50.6694 74.005 59.2852 67.9236 65.7562Z" fill="white"/>
<path d="M41.7531 15.0273H39.2485V17.3853H41.7531V15.0273Z" fill="white"/>
<path d="M41.7531 62.6143H39.2485V64.9722H41.7531V62.6143Z" fill="white"/>
<path d="M17.9593 38.8203H15.4546V41.1783H17.9593V38.8203Z" fill="white"/>
<path d="M24.2204 21.29H21.7158V23.648H24.2204V21.29Z" fill="white"/>
<path d="M60.537 22.541H58.0325V24.899H60.537V22.541Z" fill="white"/>
<path d="M60.537 55.1006H58.0325V57.4585H60.537V55.1006Z" fill="white"/>
<path d="M22.9676 55.1006H20.4629V57.4585H22.9676V55.1006Z" fill="white"/>
<path d="M65.5455 38.8203H63.0408V41.1783H65.5455V38.8203Z" fill="white"/>
<path d="M27.7556 40.0003L40.5 56.9928L53.2444 40.0003L40.5 23.0078L27.7556 40.0003ZM40.5 53.0628L30.7033 40.0003L40.5 26.9378L50.2967 40.0003L40.5 53.0628Z" fill="white"/>
</svg>
