<svg xmlns="http://www.w3.org/2000/svg" width="76" height="76" viewBox="0 0 76 76" fill="none">
<path d="M28 28C30.7195 28 33.3779 27.1936 35.6391 25.6827C37.9003 24.1718 39.6626 22.0244 40.7033 19.5119C41.744 16.9994 42.0163 14.2348 41.4858 11.5675C40.9552 8.90028 39.6457 6.45026 37.7227 4.52729C35.7997 2.60432 33.3497 1.29476 30.6825 0.764209C28.0153 0.233662 25.2506 0.505958 22.7381 1.54666C20.2256 2.58737 18.0782 4.34974 16.5673 6.61092C15.0564 8.87209 14.25 11.5305 14.25 14.25C14.2543 17.8954 15.7043 21.3903 18.282 23.968C20.8597 26.5457 24.3546 27.9957 28 28ZM28 3.00001C30.225 3.00001 32.4001 3.65981 34.2502 4.89597C36.1002 6.13214 37.5422 7.88915 38.3936 9.94482C39.2451 12.0005 39.4679 14.2625 39.0338 16.4448C38.5997 18.6271 37.5283 20.6316 35.9549 22.205C34.3816 23.7783 32.3771 24.8498 30.1948 25.2838C28.0125 25.7179 25.7505 25.4951 23.6948 24.6437C21.6391 23.7922 19.8821 22.3502 18.646 20.5002C17.4098 18.6501 16.75 16.475 16.75 14.25C16.7533 11.2673 17.9396 8.40778 20.0487 6.29871C22.1578 4.18964 25.0173 3.00331 28 3.00001Z" fill="white"/>
<path d="M26.75 23H29.25V20.5C29.913 20.5 30.5489 20.2366 31.0178 19.7678C31.4866 19.2989 31.75 18.663 31.75 18V15.5C31.75 14.837 31.4866 14.2011 31.0178 13.7322C30.5489 13.2634 29.913 13 29.25 13H26.75V10.5H31.75V8H29.25V5.5H26.75V8C26.087 8 25.4511 8.26339 24.9822 8.73223C24.5134 9.20107 24.25 9.83696 24.25 10.5V13C24.25 13.663 24.5134 14.2989 24.9822 14.7678C25.4511 15.2366 26.087 15.5 26.75 15.5H29.25V18H24.25V20.5H26.75V23Z" fill="white"/>
<path d="M75.5 3H73V0.5H70.5V3H68V5.5H70.5V8H73V5.5H75.5V3Z" fill="white"/>
<path d="M70.5 14.25H68V16.75H65.5V19.25H68V21.75H70.5V19.25H73V16.75H70.5V14.25Z" fill="white"/>
<path d="M51.75 9.25H54.25V6.75H56.75V4.25H54.25V1.75H51.75V4.25H49.25V6.75H51.75V9.25Z" fill="white"/>
<path d="M48 62.9997H60.5C66.6 62.9997 71.75 57.2747 71.75 50.4997V45.4997C71.75 39.0122 67.8875 30.6872 62.8625 25.8872C63.3457 25.4991 63.7241 24.9963 63.9631 24.4245C64.2021 23.8527 64.2941 23.2302 64.2307 22.6137C64.1673 21.9972 63.9506 21.4064 63.6002 20.8952C63.2499 20.384 62.7771 19.9687 62.225 19.6872L65.4375 9.62465C65.5113 9.40335 65.5199 9.16548 65.4623 8.93941C65.4047 8.71335 65.2833 8.50862 65.1125 8.34965C64.9436 8.18624 64.732 8.07375 64.5021 8.02511C64.2721 7.97647 64.0331 7.99364 63.8125 8.07465L54.1125 11.7122L45.675 10.5122C45.4697 10.4793 45.2595 10.5001 45.0646 10.5723C44.8697 10.6446 44.6968 10.766 44.5625 10.9247C44.4278 11.0802 44.3324 11.2659 44.2846 11.4661C44.2367 11.6662 44.2377 11.875 44.2875 12.0747L46.325 19.6622C45.7645 19.9374 45.2825 20.3497 44.9237 20.8608C44.5649 21.3719 44.3408 21.9652 44.2723 22.5859C44.2037 23.2066 44.2929 23.8345 44.5315 24.4116C44.7702 24.9887 45.1506 25.4962 45.6375 25.8872C40.6125 30.6872 36.75 39.0122 36.75 45.4997V46.3372L26.0875 40.6497C25.92 40.5575 25.7331 40.506 25.542 40.4995C25.3509 40.493 25.1609 40.5316 24.9875 40.6122L15.5 44.8247V44.2497C15.5 43.9181 15.3683 43.6002 15.1339 43.3658C14.8995 43.1313 14.5815 42.9997 14.25 42.9997H9.25001C8.91849 42.9997 8.60055 43.1313 8.36613 43.3658C8.13171 43.6002 8.00001 43.9181 8.00001 44.2497V45.0122L2.15001 43.0622C1.96203 43.0002 1.76202 42.9837 1.56643 43.0141C1.37085 43.0446 1.18528 43.121 1.02501 43.2372C0.86218 43.3509 0.729357 43.5025 0.637922 43.6788C0.546486 43.8551 0.499165 44.051 0.500011 44.2497V66.7497C0.499165 66.9483 0.546486 67.1442 0.637922 67.3205C0.729357 67.4968 0.86218 67.6484 1.02501 67.7622C1.23349 67.9198 1.48864 68.0034 1.75001 67.9997C1.88558 67.9972 2.02017 67.9762 2.15001 67.9372L8.00001 65.9872V66.7497C8.00001 67.0812 8.13171 67.3991 8.36613 67.6335C8.60055 67.868 8.91849 67.9997 9.25001 67.9997H14.25C14.5648 67.9973 14.867 67.8763 15.0964 67.6608C15.3258 67.4452 15.4655 67.1511 15.4875 66.8372L25.975 75.2247C26.1938 75.4032 26.4677 75.5003 26.75 75.4997H63C64.3261 75.4997 65.5979 74.9729 66.5355 74.0352C67.4732 73.0975 68 71.8257 68 70.4997C68 69.1736 67.4732 67.9018 66.5355 66.9641C65.5979 66.0264 64.3261 65.4997 63 65.4997H38.4375L29.0625 57.9997H39.125C40.0853 59.4928 41.3958 60.7288 42.9425 61.6002C44.4892 62.4716 46.2254 62.952 48 62.9997ZM8.00001 63.3497L3.00001 65.0122V45.9872L8.00001 47.6497V63.3497ZM13 65.4997H10.5V45.4997H13V65.4997ZM54.075 14.2372C54.2812 14.2668 54.4915 14.2453 54.6875 14.1747L62.275 11.3247L59.7375 19.2497H48.8125L47.2 13.2497L54.075 14.2372ZM48 21.7497H60.5C60.8315 21.7497 61.1495 21.8813 61.3839 22.1158C61.6183 22.3502 61.75 22.6681 61.75 22.9997C61.75 23.3312 61.6183 23.6491 61.3839 23.8835C61.1495 24.118 60.8315 24.2497 60.5 24.2497H48C47.6685 24.2497 47.3505 24.118 47.1161 23.8835C46.8817 23.6491 46.75 23.3312 46.75 22.9997C46.75 22.6681 46.8817 22.3502 47.1161 22.1158C47.3505 21.8813 47.6685 21.7497 48 21.7497ZM39.25 45.4997C39.25 39.2497 43.4375 30.7872 48.45 26.7497H60.05C65.0625 30.7872 69.25 39.2497 69.25 45.4997V50.4997C69.25 55.8247 65.1625 60.4997 60.5 60.4997H48C46.9239 60.4779 45.863 60.2411 44.8798 59.8032C43.8966 59.3653 43.011 58.7351 42.275 57.9497C43.1675 57.8235 43.9847 57.38 44.5769 56.7006C45.1692 56.0211 45.4969 55.151 45.5 54.2497V51.7497C45.5016 51.5231 45.4406 51.3004 45.3237 51.1063C45.2068 50.9122 45.0385 50.7542 44.8375 50.6497L39.25 47.6622V45.4997ZM24.725 57.7247L37.225 67.7247C37.4438 67.9032 37.7177 68.0003 38 67.9997H63C63.6631 67.9997 64.2989 68.263 64.7678 68.7319C65.2366 69.2007 65.5 69.8366 65.5 70.4997C65.5 71.1627 65.2366 71.7986 64.7678 72.2674C64.2989 72.7363 63.6631 72.9997 63 72.9997H27.1875L15.5 63.6497V47.5622L25.45 43.1372L43 52.4997V54.2497C43 54.5812 42.8683 54.8991 42.6339 55.1335C42.3995 55.368 42.0815 55.4997 41.75 55.4997H25.5C25.2416 55.5007 24.9899 55.5818 24.7795 55.7317C24.569 55.8817 24.4103 56.0932 24.325 56.3372C24.2367 56.581 24.2278 56.8466 24.2997 57.0959C24.3715 57.3451 24.5204 57.5652 24.725 57.7247Z" fill="white"/>
<path d="M55.5 41.75H53C52.0054 41.75 51.0516 41.3549 50.3484 40.6516C49.6451 39.9484 49.25 38.9946 49.25 38C49.25 37.0054 49.6451 36.0516 50.3484 35.3483C51.0516 34.6451 52.0054 34.25 53 34.25H60.5V31.75H55.5V29.25H53V31.75C51.3424 31.75 49.7527 32.4085 48.5806 33.5806C47.4085 34.7527 46.75 36.3424 46.75 38C46.75 39.6576 47.4085 41.2473 48.5806 42.4194C49.7527 43.5915 51.3424 44.25 53 44.25H55.5C56.4946 44.25 57.4484 44.6451 58.1516 45.3484C58.8549 46.0516 59.25 47.0054 59.25 48C59.25 48.9946 58.8549 49.9484 58.1516 50.6517C57.4484 51.3549 56.4946 51.75 55.5 51.75H48V54.25H53V56.75H55.5V54.25C57.1576 54.25 58.7473 53.5915 59.9194 52.4194C61.0915 51.2473 61.75 49.6576 61.75 48C61.75 46.3424 61.0915 44.7527 59.9194 43.5806C58.7473 42.4085 57.1576 41.75 55.5 41.75Z" fill="white"/>
</svg>
