<?xml version="1.0" standalone="no"?>
<!DOCTYPE svg PUBLIC "-//W3C//DTD SVG 20010904//EN"
 "http://www.w3.org/TR/2001/REC-SVG-20010904/DTD/svg10.dtd">
<svg version="1.0" xmlns="http://www.w3.org/2000/svg"
 width="360.000000pt" height="360.000000pt" viewBox="0 0 360.000000 360.000000"
 preserveAspectRatio="xMidYMid meet">

<g transform="translate(0.000000,360.000000) scale(0.100000,-0.100000)"
fill="#8f00ff" stroke="none">
<path d="M790 3586 c-71 -20 -94 -35 -384 -246 -272 -198 -313 -235 -355 -317
-51 -102 -51 -91 -51 -1210 0 -721 3 -1058 11 -1095 16 -79 64 -169 117 -220
83 -81 525 -420 582 -447 48 -23 67 -26 160 -26 94 0 111 3 160 27 43 22 380
274 424 319 6 5 3 15 -10 24 -47 37 -54 33 -236 -109 -95 -75 -193 -146 -218
-159 -61 -30 -175 -31 -240 -1 -49 23 -487 359 -562 432 -26 25 -59 71 -75
106 l-28 61 0 1085 0 1085 22 55 c13 30 40 74 60 97 21 24 159 131 307 238
211 153 280 199 324 211 71 21 153 14 214 -17 25 -13 359 -211 743 -439 440
-262 711 -430 736 -455 22 -22 52 -65 67 -95 l27 -55 3 -416 3 -416 -26 -17
c-59 -39 -82 -124 -50 -186 25 -48 62 -70 117 -70 43 0 55 5 83 33 61 61 57
161 -10 214 l-35 28 0 407 c0 367 -2 412 -18 466 -23 72 -79 158 -129 198 -48
38 -1428 858 -1499 891 -65 29 -170 38 -234 19z"/>
<path d="M2630 3575 c-63 -18 -73 -24 -307 -189 -171 -120 -172 -121 -150
-139 48 -37 55 -35 240 96 183 130 239 157 316 157 87 -1 136 -28 416 -232
279 -203 310 -231 351 -328 18 -43 19 -86 22 -1085 2 -724 0 -1059 -8 -1104
-12 -71 -35 -122 -76 -171 -37 -43 -537 -431 -594 -460 -60 -30 -145 -37 -210
-16 -59 19 -1471 911 -1525 963 -46 44 -80 114 -94 188 -7 35 -11 195 -11 396
l0 338 30 21 c92 65 76 213 -26 249 -52 18 -88 9 -131 -34 -30 -30 -33 -38
-33 -96 0 -60 2 -64 40 -100 l40 -38 0 -349 c0 -207 4 -372 11 -408 15 -83 60
-171 114 -226 30 -30 302 -208 764 -501 394 -250 730 -461 746 -469 50 -25
134 -41 189 -35 103 11 150 38 421 247 143 111 279 220 303 243 57 55 91 114
114 196 17 62 18 129 18 1121 0 905 -2 1064 -15 1113 -18 69 -47 128 -87 180
-38 47 -546 418 -621 453 -72 32 -171 40 -247 19z"/>
<path d="M1352 2067 c-6 -23 -8 -45 -4 -49 13 -13 883 -520 886 -516 2 1 6 21
8 43 l5 41 -401 237 c-220 130 -420 248 -442 262 l-42 25 -10 -43z"/>
</g>
</svg>
