<svg xmlns="http://www.w3.org/2000/svg" width="32" height="32" viewBox="0 0 32 32" fill="none">
<path d="M28.4333 12.411C27.4226 12.411 26.5333 12.8363 25.8786 13.499C23.472 11.8083 20.2266 10.7203 16.6306 10.6043L18.4986 2.06299L24.4466 3.41766C24.4466 4.89499 25.6333 6.10166 27.0893 6.10166C28.5733 6.10166 29.7666 4.86299 29.7666 3.38433C29.7666 1.90566 28.5813 0.666992 27.0906 0.666992C26.052 0.666992 25.1559 1.30299 24.7093 2.17233L18.1399 0.694992C17.8093 0.605659 17.4853 0.845659 17.3973 1.18166L15.3466 10.5977C11.7786 10.7483 8.56795 11.835 6.15328 13.527C5.49862 12.8363 4.57462 12.411 3.56395 12.411C-0.185383 12.411 -1.41338 17.5163 2.01995 19.2617C1.89862 19.8017 1.84395 20.3777 1.84395 20.9523C1.84395 26.687 8.21062 31.3337 16.028 31.3337C23.8786 31.3337 30.2453 26.687 30.2453 20.9523C30.2453 20.3777 30.1853 19.775 30.0373 19.2337C33.4013 17.4817 32.1626 12.4137 28.4333 12.411ZM7.46795 19.6243C7.46795 18.119 8.65462 16.907 10.1453 16.907C11.6013 16.907 12.7893 18.111 12.7893 19.6243C12.7893 21.103 11.6026 22.3083 10.1453 22.3083C8.66128 22.315 7.46795 21.103 7.46795 19.6243ZM21.92 26.0217C19.4653 28.5123 12.5386 28.5123 10.0826 26.0217C9.81195 25.7817 9.81195 25.3577 10.0826 25.0843C10.3186 24.8443 10.7373 24.8443 10.9733 25.0843C12.8479 27.035 19.0666 27.0683 21.0226 25.0843C21.2586 24.8443 21.6773 24.8443 21.9133 25.0843C22.1893 25.359 22.1893 25.783 21.92 26.0217ZM21.8653 22.3137C20.4093 22.3137 19.2226 21.1097 19.2226 19.6323C19.2226 18.127 20.4093 16.915 21.8653 16.915C23.3493 16.915 24.5426 18.119 24.5426 19.6323C24.5359 21.103 23.3493 22.3137 21.8653 22.3137Z" fill="white"/>
</svg>
